<?xml version="1.0" encoding="UTF-8" standalone="no"?>
<svg
   width="119.71875"
   zoomAndPan="magnify"
   viewBox="0 0 89.789062 205.28514"
   height="273.71353"
   preserveAspectRatio="xMidYMid"
   version="1.0"
   id="svg236"
   sodipodi:docname="Vetorrrrr Aheeeee.svg"
   xml:space="preserve"
   inkscape:version="1.4.3 (0d15f75, 2025-12-25)"
   xmlns:inkscape="http://www.inkscape.org/namespaces/inkscape"
   xmlns:sodipodi="http://sodipodi.sourceforge.net/DTD/sodipodi-0.dtd"
   xmlns="http://www.w3.org/2000/svg"
   xmlns:svg="http://www.w3.org/2000/svg"><sodipodi:namedview
     id="namedview236"
     pagecolor="#ffffff"
     bordercolor="#000000"
     borderopacity="0.25"
     inkscape:showpageshadow="2"
     inkscape:pageopacity="0.0"
     inkscape:pagecheckerboard="0"
     inkscape:deskcolor="#d1d1d1"
     inkscape:zoom="1.0787054"
     inkscape:cx="262.81503"
     inkscape:cy="239.6391"
     inkscape:window-width="1920"
     inkscape:window-height="1009"
     inkscape:window-x="1912"
     inkscape:window-y="-8"
     inkscape:window-maximized="1"
     inkscape:current-layer="svg236"><inkscape:page
       x="0"
       y="0"
       width="89.789062"
       height="205.28514"
       id="page2"
       margin="0"
       bleed="0" /></sodipodi:namedview><defs
     id="defs4"><clipPath
       id="aa5841c052"><path
         d="M 39.660156,95.488281 H 129.60156 V 300.85937 H 39.660156 Z m 0,0"
         clip-rule="nonzero"
         id="path3" /></clipPath><clipPath
       id="201645a725"><path
         d="M 0.8125,0.488281 H 90.601562 V 205.85937 H 0.8125 Z m 0,0"
         clip-rule="nonzero"
         id="path4" /></clipPath><clipPath
       id="c1c9da8f25"><rect
         x="0"
         width="91"
         y="0"
         height="206"
         id="rect4" /></clipPath></defs><g
     clip-path="url(#aa5841c052)"
     id="g236"
     transform="translate(-39.8125,-95.574218)"><g
       transform="translate(39,95)"
       id="g235"><g
         clip-path="url(#c1c9da8f25)"
         id="g234"><path
           fill="#00674f"
           d="m 61.6875,45.363281 c 0.05078,-0.152343 0.101562,-0.300781 0.144531,-0.453125 -0.04297,0.152344 -0.109375,0.300782 -0.144531,0.453125 z m 0,0"
           fill-opacity="1"
           fill-rule="nonzero"
           id="path93" /><path
           fill="#00674f"
           d="m 61.554688,45.789062 c 0.05078,-0.148437 0.09375,-0.300781 0.148437,-0.445312 -0.05469,0.179688 -0.09766,0.296875 -0.148437,0.445312 z m 0,0"
           fill-opacity="1"
           fill-rule="nonzero"
           id="path94" /><path
           fill="#00674f"
           d="m 61.421875,46.257812 c 0.04687,-0.15625 0.09766,-0.300781 0.148437,-0.453124 -0.05078,0.117187 -0.101562,0.261718 -0.148437,0.453124 z m 0,0"
           fill-opacity="1"
           fill-rule="nonzero"
           id="path95" /><path
           fill="#00674f"
           d="m 61.292969,46.644531 c 0.04297,-0.152343 0.09375,-0.300781 0.136719,-0.453125 -0.04297,0.152344 -0.09375,0.300782 -0.136719,0.453125 z m 0,0"
           fill-opacity="1"
           fill-rule="nonzero"
           id="path96" /><path
           fill="#00674f"
           d="m 61.152344,47.066406 0.148437,-0.445312 z m 0,0"
           fill-opacity="1"
           fill-rule="nonzero"
           id="path97" /><path
           fill="#00674f"
           d="m 34.109375,72.664062 c 0.59375,0.714844 0.996094,1.523438 1.207031,2.425782 -0.574218,-0.726563 -0.976562,-1.539063 -1.199218,-2.441406 z m 0,0"
           fill-opacity="1"
           fill-rule="nonzero"
           id="path98" /><path
           fill="#00674f"
           d="m 34.117188,72.648438 c -0.445313,-0.390626 -0.726563,-0.878907 -0.839844,-1.460938 0.445312,0.390625 0.730468,0.878906 0.847656,1.460938 z m 0,0"
           fill-opacity="1"
           fill-rule="nonzero"
           id="path99" /><path
           fill="#00674f"
           d="m 32.398438,69.46875 -0.226563,-0.234375 0.101563,-0.06641 0.117187,0.3125 z m 0,0"
           fill-opacity="1"
           fill-rule="nonzero"
           id="path100" /><path
           fill="#00674f"
           d="m 32.691406,70.03125 -0.292968,-0.5625 z m 0,0"
           fill-opacity="1"
           fill-rule="nonzero"
           id="path101" /><path
           fill="#00674f"
           d="m 32.683594,70.046875 0.285156,0.5625 c -0.269531,-0.09766 -0.25,-0.34375 -0.292969,-0.5625 z m 0,0"
           fill-opacity="1"
           fill-rule="nonzero"
           id="path102" /><path
           fill="#00674f"
           d="m 32.96875,70.609375 0.292969,0.570313 C 33.160156,70.988281 33.0625,70.796875 32.96875,70.609375 Z m 0,0"
           fill-opacity="1"
           fill-rule="nonzero"
           id="path103" /><path
           fill="#00674f"
           d="m 61.722656,31.796875 c 0.125,-1.214844 0.484375,-2.359375 1.082032,-3.429687 -0.351563,1.140624 -0.707032,2.289062 -1.082032,3.429687 z m 0,0"
           fill-opacity="1"
           fill-rule="nonzero"
           id="path104" /><path
           fill="#00674f"
           d="m 58.410156,45.085938 c 0.01563,-1.109376 0.257813,-2.167969 0.730469,-3.171876 -0.08203,1.09375 -0.324219,2.152344 -0.730469,3.171876 z m 0,0"
           fill-opacity="1"
           fill-rule="nonzero"
           id="path105" /><path
           fill="#00674f"
           d="m 64.445312,23.46875 c 0.07031,-0.714844 0.3125,-1.367188 0.730469,-1.953125 -0.05469,0.722656 -0.300781,1.375 -0.730469,1.953125 z m 0,0"
           fill-opacity="1"
           fill-rule="nonzero"
           id="path106" /><path
           fill="#00674f"
           d="m 63.339844,26.6875 c 0.05859,-0.722656 0.304687,-1.375 0.730468,-1.960938 -0.0625,0.722657 -0.308593,1.375 -0.730468,1.960938 z m 0,0"
           fill-opacity="1"
           fill-rule="nonzero"
           id="path107" /><path
           fill="#00674f"
           d="m 65.277344,21.113281 c -0.0039,-0.585937 0.1875,-1.097656 0.578125,-1.535156 -0.01563,0.578125 -0.207031,1.089844 -0.578125,1.535156 z m 0,0"
           fill-opacity="1"
           fill-rule="nonzero"
           id="path108" /><path
           fill="#00674f"
           d="m 61.101562,34.132812 c -0.03906,-0.542968 0.08203,-1.046874 0.371094,-1.507812 0.03906,0.542969 -0.08594,1.042969 -0.371094,1.507812 z m 0,0"
           fill-opacity="1"
           fill-rule="nonzero"
           id="path109" /><path
           fill="#00674f"
           d="m 59.113281,41.933594 c -0.04297,-0.53125 0.08203,-1.019532 0.378907,-1.460938 0.03906,0.53125 -0.08984,1.015625 -0.378907,1.460938 z m 0,0"
           fill-opacity="1"
           fill-rule="nonzero"
           id="path110" /><path
           fill="#00674f"
           d="m 65.980469,19.199219 c -0.01563,-0.433594 0.132812,-0.804688 0.445312,-1.105469 0.03516,0.445312 -0.113281,0.8125 -0.445312,1.105469 z m 0,0"
           fill-opacity="1"
           fill-rule="nonzero"
           id="path111" /><path
           fill="#00674f"
           d="m 66.410156,18.09375 c -0.03125,-0.433594 0.113282,-0.796875 0.433594,-1.089844 0.02344,0.429688 -0.121094,0.792969 -0.433594,1.089844 z m 0,0"
           fill-opacity="1"
           fill-rule="nonzero"
           id="path112" /><path
           fill="#00674f"
           d="m 66.84375,17.003906 c -0.03125,-0.441406 0.117188,-0.808594 0.445312,-1.105468 0.02734,0.441406 -0.121093,0.808593 -0.445312,1.105468 z m 0,0"
           fill-opacity="1"
           fill-rule="nonzero"
           id="path113" /><path
           fill="#00674f"
           d="m 68.144531,13.773438 c -0.01563,-0.433594 0.132813,-0.804688 0.445313,-1.105469 0.01563,0.433593 -0.132813,0.800781 -0.445313,1.105469 z m 0,0"
           fill-opacity="1"
           fill-rule="nonzero"
           id="path114" /><path
           fill="#00674f"
           d="m 69.972656,12.449219 c -0.0039,0.425781 -0.152344,0.792969 -0.445312,1.105469 -0.01563,-0.4375 0.132812,-0.804688 0.445312,-1.105469 z m 0,0"
           fill-opacity="1"
           fill-rule="nonzero"
           id="path115" /><path
           fill="#00674f"
           d="m 70.675781,10.511719 c -0.01953,0.421875 -0.167969,0.789062 -0.449219,1.101562 0,-0.425781 0.148438,-0.796875 0.449219,-1.101562 z m 0,0"
           fill-opacity="1"
           fill-rule="nonzero"
           id="path116" /><path
           fill="#00674f"
           d="m 67.28125,15.9375 c -0.03516,-0.445312 0.113281,-0.820312 0.4375,-1.125 0.03516,0.445312 -0.109375,0.820312 -0.4375,1.125 z m 0,0"
           fill-opacity="1"
           fill-rule="nonzero"
           id="path117" /><path
           fill="#00674f"
           d="m 67.710938,14.855469 c -0.02734,-0.441407 0.121093,-0.808594 0.449218,-1.105469 0.01563,0.433594 -0.136718,0.804688 -0.449218,1.105469 z m 0,0"
           fill-opacity="1"
           fill-rule="nonzero"
           id="path118" /><path
           fill="#00674f"
           d="m 69.90625,9.640625 c 0.0078,-0.382813 0.167969,-0.6875 0.484375,-0.90625 -0.0078,0.382813 -0.167969,0.6875 -0.484375,0.90625 z m 0,0"
           fill-opacity="1"
           fill-rule="nonzero"
           id="path119" /><path
           fill="#00674f"
           d="m 59.617188,40.03125 c -0.07813,-0.398438 0.0039,-0.761719 0.25,-1.085938 0.06641,0.394532 -0.01563,0.757813 -0.25,1.085938 z m 0,0"
           fill-opacity="1"
           fill-rule="nonzero"
           id="path120" /><path
           fill="#00674f"
           d="m 70.675781,8.105469 c 0.01172,-0.378907 0.167969,-0.683594 0.472657,-0.90625 0.0078,0.386719 -0.152344,0.6875 -0.472657,0.90625 z m 0,0"
           fill-opacity="1"
           fill-rule="nonzero"
           id="path121" /><path
           fill="#00674f"
           d="m 60.363281,37.078125 0.242188,-1.058594 c 0.05859,0.382813 -0.01953,0.738281 -0.242188,1.058594 z m 0,0"
           fill-opacity="1"
           fill-rule="nonzero"
           id="path122" /><path
           fill="#00674f"
           d="m 71.433594,6.5625 c 0.0039,-0.386719 0.164062,-0.691406 0.484375,-0.90625 0.0039,0.390625 -0.15625,0.691406 -0.484375,0.90625 z m 0,0"
           fill-opacity="1"
           fill-rule="nonzero"
           id="path123" /><path
           fill="#00674f"
           d="m 59.988281,38.554688 c -0.05078,-0.394532 0.04297,-0.75 0.273438,-1.074219 0.0625,0.398437 -0.02734,0.753906 -0.273438,1.074219 z m 0,0"
           fill-opacity="1"
           fill-rule="nonzero"
           id="path124" /><path
           fill="#00674f"
           d="m 60.730469,35.601562 0.261719,-1.046874 c 0.05078,0.382812 -0.03906,0.734374 -0.261719,1.046874 z m 0,0"
           fill-opacity="1"
           fill-rule="nonzero"
           id="path125" /><path
           fill="#00674f"
           d="m 68.574219,12.691406 c -0.05078,-0.300781 0.05469,-0.527344 0.316406,-0.679687 z m 0,0"
           fill-opacity="1"
           fill-rule="nonzero"
           id="path126" /><path
           fill="#00674f"
           d="m 69.035156,11.609375 0.316406,-0.683594 c 0.05469,0.304688 -0.04687,0.53125 -0.316406,0.683594 z m 0,0"
           fill-opacity="1"
           fill-rule="nonzero"
           id="path127" /><path
           fill="#00674f"
           d="m 69.308594,10.957031 c -0.03125,-0.289062 0.07422,-0.515625 0.3125,-0.679687 0.03125,0.289062 -0.07422,0.515625 -0.3125,0.679687 z m 0,0"
           fill-opacity="1"
           fill-rule="nonzero"
           id="path128" /><path
           fill="#00674f"
           d="m 71.105469,9.429688 -0.3125,0.679687 z m 0,0"
           fill-opacity="1"
           fill-rule="nonzero"
           id="path129" /><path
           fill="#00674f"
           d="m 69.605469,10.296875 c -0.03125,-0.289063 0.07422,-0.515625 0.316406,-0.679687 0.04297,0.296874 -0.0625,0.523437 -0.316406,0.679687 z m 0,0"
           fill-opacity="1"
           fill-rule="nonzero"
           id="path130" /><path
           fill="#00674f"
           d="M 70.375,8.761719 C 70.332031,8.46875 70.433594,8.242188 70.679688,8.082031 70.726562,8.375 70.625,8.601562 70.375,8.761719 Z m 0,0"
           fill-opacity="1"
           fill-rule="nonzero"
           id="path131" /><path
           fill="#00674f"
           d="m 71.136719,7.21875 0.3125,-0.679688 c 0.05469,0.300782 -0.05078,0.527344 -0.3125,0.679688 z m 0,0"
           fill-opacity="1"
           fill-rule="nonzero"
           id="path132" /><path
           fill="#00674f"
           d="M 72.203125,5.027344 C 72.167969,4.890625 72.175781,4.757812 72.238281,4.628906 72.296875,4.5 72.390625,4.40625 72.515625,4.347656 Z m 0,0"
           fill-opacity="1"
           fill-rule="nonzero"
           id="path133" /><path
           fill="#00674f"
           d="m 72.539062,5.757812 -0.3125,0.679688 z m 0,0"
           fill-opacity="1"
           fill-rule="nonzero"
           id="path134" /><path
           fill="#00674f"
           d="M 71.902344,5.683594 C 71.871094,5.546875 71.882812,5.417969 71.941406,5.289062 72,5.164062 72.09375,5.066406 72.21875,5.003906 72.109375,5.230469 72.003906,5.457031 71.902344,5.683594 Z m 0,0"
           fill-opacity="1"
           fill-rule="nonzero"
           id="path135" /><path
           fill="#00674f"
           d="m 59.484375,40.457031 c 0.05078,-0.144531 0.09766,-0.300781 0.148437,-0.445312 -0.05078,0.144531 -0.101562,0.300781 -0.148437,0.445312 z m 0,0"
           fill-opacity="1"
           fill-rule="nonzero"
           id="path136" /><path
           fill="#00674f"
           d="m 59.851562,38.980469 c 0.05078,-0.148438 0.101563,-0.300781 0.144532,-0.445313 -0.04297,0.144532 -0.09375,0.296875 -0.144532,0.445313 z m 0,0"
           fill-opacity="1"
           fill-rule="nonzero"
           id="path137" /><path
           fill="#00674f"
           d="m 60.222656,37.480469 c 0.05078,-0.144531 0.09766,-0.300781 0.148438,-0.445313 -0.05078,0.167969 -0.109375,0.320313 -0.148438,0.445313 z m 0,0"
           fill-opacity="1"
           fill-rule="nonzero"
           id="path138" /><path
           fill="#00674f"
           d="m 60.597656,36.019531 0.136719,-0.453125 z m 0,0"
           fill-opacity="1"
           fill-rule="nonzero"
           id="path139" /><path
           fill="#00674f"
           d="m 60.992188,34.554688 0.144531,-0.453126 z m 0,0"
           fill-opacity="1"
           fill-rule="nonzero"
           id="path140" /><path
           fill="#00674f"
           d="m 61.46875,32.65625 0.144531,-0.457031 z m 0,0"
           fill-opacity="1"
           fill-rule="nonzero"
           id="path141" /><path
           fill="#00674f"
           d="m 61.597656,32.222656 0.125,-0.445312 z m 0,0"
           fill-opacity="1"
           fill-rule="nonzero"
           id="path142" /><path
           fill="#00674f"
           d="M 62.804688,28.390625 62.953125,27.9375 Z m 0,0"
           fill-opacity="1"
           fill-rule="nonzero"
           id="path143" /><path
           fill="#00674f"
           d="m 62.9375,27.972656 0.144531,-0.453125 z m 0,0"
           fill-opacity="1"
           fill-rule="nonzero"
           id="path144" /><path
           fill="#00674f"
           d="M 63.074219,27.535156 63.1875,27.089844 Z m 0,0"
           fill-opacity="1"
           fill-rule="nonzero"
           id="path145" /><path
           fill="#00674f"
           d="M 63.1875,27.109375 C 63.230469,26.964844 63.28125,26.8125 63.332031,26.65625 63.304688,26.8125 63.25,26.964844 63.1875,27.109375 Z m 0,0"
           fill-opacity="1"
           fill-rule="nonzero"
           id="path146" /><path
           fill="#00674f"
           d="m 64.042969,24.75 c 0.05078,-0.148438 0.09375,-0.300781 0.144531,-0.445312 -0.05078,0.144531 -0.09375,0.296874 -0.144531,0.445312 z m 0,0"
           fill-opacity="1"
           fill-rule="nonzero"
           id="path147" /><path
           fill="#00674f"
           d="m 64.171875,24.316406 c 0.05078,-0.144531 0.105469,-0.296875 0.148437,-0.453125 -0.04297,0.160157 -0.09766,0.316407 -0.148437,0.453125 z m 0,0"
           fill-opacity="1"
           fill-rule="nonzero"
           id="path148" /><path
           fill="#00674f"
           d="m 64.3125,23.902344 0.136719,-0.453125 z m 0,0"
           fill-opacity="1"
           fill-rule="nonzero"
           id="path149" /><path
           fill="#00674f"
           d="m 57.175781,61.242188 0.06641,0.414062 c -0.214844,-0.101562 -0.164063,-0.253906 -0.06641,-0.414062 z m 0,0"
           fill-opacity="1"
           fill-rule="nonzero"
           id="path150" /><path
           fill="#00674f"
           d="m 65.144531,21.539062 0.140625,-0.445312 z m 0,0"
           fill-opacity="1"
           fill-rule="nonzero"
           id="path151" /><path
           fill="#00674f"
           d="m 65.847656,19.609375 0.140625,-0.453125 z m 0,0"
           fill-opacity="1"
           fill-rule="nonzero"
           id="path152" /><path
           fill="#00674f"
           d="m 69.132812,14.8125 c -0.04687,0.152344 -0.09766,0.296875 -0.140624,0.453125 0.04297,-0.164063 0.09375,-0.308594 0.140624,-0.453125 z m 0,0"
           fill-opacity="1"
           fill-rule="nonzero"
           id="path153" /><path
           fill="#00674f"
           d="m 69.269531,14.378906 c -0.05078,0.148438 -0.09375,0.300782 -0.144531,0.453125 0.05078,-0.152343 0.09375,-0.304687 0.144531,-0.453125 z m 0,0"
           fill-opacity="1"
           fill-rule="nonzero"
           id="path154" /><path
           fill="#00674f"
           d="m 69.402344,13.957031 c -0.05078,0.144531 -0.09375,0.296875 -0.148438,0.445313 0.05469,-0.148438 0.09766,-0.324219 0.148438,-0.445313 z m 0,0"
           fill-opacity="1"
           fill-rule="nonzero"
           id="path155" /><path
           fill="#00674f"
           d="m 69.535156,13.523438 -0.140625,0.453124 z m 0,0"
           fill-opacity="1"
           fill-rule="nonzero"
           id="path156" /><path
           fill="#00674f"
           d="M 73.234375,3.839844 73.09375,4.289062 Z m 0,0"
           fill-opacity="1"
           fill-rule="nonzero"
           id="path157" /><path
           fill="#00674f"
           d="m 73.101562,4.25 -0.136718,0.453125 z m 0,0"
           fill-opacity="1"
           fill-rule="nonzero"
           id="path158" /><path
           fill="#00674f"
           d="m 72.800781,4.910156 -0.136719,0.445313 z m 0,0"
           fill-opacity="1"
           fill-rule="nonzero"
           id="path159" /><path
           fill="#00674f"
           d="m 72.691406,5.304688 -0.144531,0.453124 z m 0,0"
           fill-opacity="1"
           fill-rule="nonzero"
           id="path160" /><path
           fill="#00674f"
           d="M 72.238281,6.414062 72.09375,6.863281 Z m 0,0"
           fill-opacity="1"
           fill-rule="nonzero"
           id="path161" /><path
           fill="#00674f"
           d="m 72.101562,6.839844 -0.140624,0.453125 z m 0,0"
           fill-opacity="1"
           fill-rule="nonzero"
           id="path162" /><path
           fill="#00674f"
           d="m 71.800781,7.496094 -0.140625,0.449218 z m 0,0"
           fill-opacity="1"
           fill-rule="nonzero"
           id="path163" /><path
           fill="#00674f"
           d="M 71.667969,7.921875 71.53125,8.375 Z m 0,0"
           fill-opacity="1"
           fill-rule="nonzero"
           id="path164" /><path
           fill="#00674f"
           d="m 71.367188,8.582031 -0.136719,0.445313 z m 0,0"
           fill-opacity="1"
           fill-rule="nonzero"
           id="path165" /><path
           fill="#00674f"
           d="m 71.230469,9.003906 c -0.05078,0.148438 -0.09375,0.300782 -0.148438,0.445313 0.05859,-0.144531 0.105469,-0.296875 0.148438,-0.445313 z m 0,0"
           fill-opacity="1"
           fill-rule="nonzero"
           id="path166" /><path
           fill="#00674f"
           d="m 70.105469,12.015625 -0.148438,0.453125 z m 0,0"
           fill-opacity="1"
           fill-rule="nonzero"
           id="path167" /><path
           fill="#00674f"
           d="m 70.804688,10.085938 c -0.05078,0.148437 -0.09375,0.300781 -0.144532,0.445312 0.05078,-0.109375 0.09375,-0.296875 0.144532,-0.445312 z m 0,0"
           fill-opacity="1"
           fill-rule="nonzero"
           id="path168" /><path
           fill="#00674f"
           d="m 70.234375,11.59375 c -0.04297,0.144531 -0.09375,0.300781 -0.136719,0.453125 0.04297,-0.160156 0.09375,-0.308594 0.136719,-0.453125 z m 0,0"
           fill-opacity="1"
           fill-rule="nonzero"
           id="path169" /><path
           fill="#00674f"
           d="m 68.875,12.039062 c 0.05078,-0.152343 0.09375,-0.308593 0.148438,-0.453124 -0.05469,0.144531 -0.09766,0.300781 -0.148438,0.453124 z m 0,0"
           fill-opacity="1"
           fill-rule="nonzero"
           id="path170" /><path
           fill="#00674f"
           d="m 71.539062,8.351562 -0.175781,0.25 z m 0,0"
           fill-opacity="1"
           fill-rule="nonzero"
           id="path171" /><path
           fill="#00674f"
           d="m 71.960938,7.269531 -0.175782,0.25 z m 0,0"
           fill-opacity="1"
           fill-rule="nonzero"
           id="path172" /><path
           fill="#00674f"
           d="m 72.96875,4.683594 -0.171875,0.246094 z m 0,0"
           fill-opacity="1"
           fill-rule="nonzero"
           id="path173" /><path
           fill="#00674f"
           d="m 59.191406,33.625 c 0.01172,-0.261719 0.04297,-0.523438 0.09766,-0.78125 0.597657,-1.949219 1.207032,-3.886719 1.828126,-5.804688 0.09766,-0.238281 0.21875,-0.46875 0.363281,-0.679687 -0.01563,0.226563 -0.05078,0.449219 -0.101563,0.671875 -0.609375,1.949219 -1.222656,3.917969 -1.84375,5.902344 -0.09766,0.238281 -0.210937,0.46875 -0.34375,0.691406 z m 0,0"
           fill-opacity="1"
           fill-rule="nonzero"
           id="path174" /><path
           fill="#00674f"
           d="m 62.167969,24.441406 c -0.01172,-0.585937 0.183593,-1.097656 0.578125,-1.527344 0.0078,0.582032 -0.1875,1.09375 -0.578125,1.527344 z m 0,0"
           fill-opacity="1"
           fill-rule="nonzero"
           id="path175" /><path
           fill="#00674f"
           d="m 61.605469,25.949219 c -0.0078,-0.585938 0.1875,-1.09375 0.578125,-1.527344 0.0078,0.582031 -0.1875,1.09375 -0.578125,1.527344 z m 0,0"
           fill-opacity="1"
           fill-rule="nonzero"
           id="path176" /><path
           fill="#00674f"
           d="m 63.238281,21.019531 c 0.05859,-0.08203 0.117188,-0.152343 0.167969,-0.234375 h 0.210938 c 0.05078,0.445313 -0.09766,0.8125 -0.445313,1.097656 l -0.06641,-0.402343 z m 0,0"
           fill-opacity="1"
           fill-rule="nonzero"
           id="path177" /><path
           fill="#00674f"
           d="M 62.804688,22.125 63.1875,21.832031 c 0.05078,0.449219 -0.101562,0.816407 -0.449219,1.101563 z m 0,0"
           fill-opacity="1"
           fill-rule="nonzero"
           id="path178" /><path
           fill="#00674f"
           d="m 61.472656,26.378906 c 0.04687,-0.152344 0.09766,-0.300781 0.140625,-0.453125 -0.04297,0.152344 -0.09375,0.300781 -0.140625,0.453125 z m 0,0"
           fill-opacity="1"
           fill-rule="nonzero"
           id="path179" /><path
           fill="#00674f"
           d="m 60.152344,55.929688 0.144531,-0.453126 z m 0,0"
           fill-opacity="1"
           fill-rule="nonzero"
           id="path180" /><path
           fill="#00674f"
           d="m 60.019531,56.355469 0.140625,-0.445313 z m 0,0"
           fill-opacity="1"
           fill-rule="nonzero"
           id="path181" /><path
           fill="#00674f"
           d="m 59.878906,56.785156 c 0.05078,-0.152344 0.105469,-0.304687 0.148438,-0.453125 -0.04297,0.164063 -0.09766,0.300781 -0.148438,0.453125 z m 0,0"
           fill-opacity="1"
           fill-rule="nonzero"
           id="path182" /><path
           fill="#00674f"
           d="m 59.75,57.226562 0.144531,-0.453124 z m 0,0"
           fill-opacity="1"
           fill-rule="nonzero"
           id="path183" /><path
           fill="#00674f"
           d="m 39.785156,92.796875 c -0.625,-0.871094 -1.113281,-1.8125 -1.464844,-2.824219 0.722657,0.820313 1.210938,1.761719 1.464844,2.824219 z m 0,0"
           fill-opacity="1"
           fill-rule="nonzero"
           id="path184" /><path
           fill="#00674f"
           d="m 40.464844,94.523438 c -0.328125,-0.25 -0.316406,-0.628907 -0.367188,-0.980469 0.324219,0.246093 0.308594,0.613281 0.367188,0.980469 z m 0,0"
           fill-opacity="1"
           fill-rule="nonzero"
           id="path185" /><path
           fill="#00674f"
           d="M 40.105469,93.554688 C 39.800781,93.375 39.8125,93.058594 39.769531,92.773438 c 0.300781,0.175781 0.292969,0.492187 0.335938,0.78125 z m 0,0"
           fill-opacity="1"
           fill-rule="nonzero"
           id="path186" /><path
           fill="#00674f"
           d="m 82.03125,111.49609 c 0.402344,-0.67968 1.140625,-0.97265 1.726562,-1.46484 0.378907,-0.25 0.777344,-0.47266 1.191407,-0.66406 -0.871094,0.85156 -1.84375,1.55859 -2.917969,2.1289 z m 0,0"
           fill-opacity="1"
           fill-rule="nonzero"
           id="path187" /><path
           fill="#00674f"
           d="m 79.523438,113.53516 c 0.574218,-0.70703 1.242187,-1.30469 2.011718,-1.79297 0.160156,-0.0977 0.332032,-0.17969 0.511719,-0.23828 -0.417969,0.67968 -1.148437,1.01562 -1.710937,1.53515 -0.253907,0.19532 -0.523438,0.35938 -0.8125,0.4961 z m 0,0"
           fill-opacity="1"
           fill-rule="nonzero"
           id="path188" /><path
           fill="#00674f"
           d="M 87.683594,107.53906 V 107.75 l -0.847656,0.44531 -0.855469,0.4336 1.066406,-0.9961 z m 0,0"
           fill-opacity="1"
           fill-rule="nonzero"
           id="path189" /><path
           fill="#00674f"
           d="m 84.933594,109.41016 0.382812,-0.27735 z m 0,0"
           fill-opacity="1"
           fill-rule="nonzero"
           id="path190" /><path
           fill="#00674f"
           d="m 85.292969,109.14844 c 0.132812,-0.0898 0.253906,-0.1836 0.378906,-0.27735 z m 0,0"
           fill-opacity="1"
           fill-rule="nonzero"
           id="path191" /><path
           fill="#00674f"
           d="m 85.660156,108.88281 0.378906,-0.26953 z m 0,0"
           fill-opacity="1"
           fill-rule="nonzero"
           id="path192" /><path
           fill="#00674f"
           d="m 54.6875,131.47266 0.550781,-0.51172 z m 0,0"
           fill-opacity="1"
           fill-rule="nonzero"
           id="path193" /><path
           fill="#00674f"
           d="m 54.160156,131.96484 0.542969,-0.51172 z m 0,0"
           fill-opacity="1"
           fill-rule="nonzero"
           id="path194" /><path
           fill="#00674f"
           d="m 53.628906,132.45312 0.546875,-0.51171 z m 0,0"
           fill-opacity="1"
           fill-rule="nonzero"
           id="path195" /><path
           fill="#00674f"
           d="m 55.214844,130.98437 0.546875,-0.51171 z m 0,0"
           fill-opacity="1"
           fill-rule="nonzero"
           id="path196" /><path
           fill="#00674f"
           d="m 55.742188,130.49609 0.546874,-0.51562 z m 0,0"
           fill-opacity="1"
           fill-rule="nonzero"
           id="path197" /><path
           fill="#00674f"
           d="m 56.273438,130.00391 0.542968,-0.51172 z m 0,0"
           fill-opacity="1"
           fill-rule="nonzero"
           id="path198" /><path
           fill="#00674f"
           d="m 56.800781,129.51562 0.550781,-0.51171 z m 0,0"
           fill-opacity="1"
           fill-rule="nonzero"
           id="path199" /><path
           fill="#00674f"
           d="m 58.21875,128.26953 0.550781,-0.5039 z m 0,0"
           fill-opacity="1"
           fill-rule="nonzero"
           id="path200" /><path
           fill="#00674f"
           d="m 51.683594,134.17969 0.378906,-0.27735 z m 0,0"
           fill-opacity="1"
           fill-rule="nonzero"
           id="path201" /><path
           fill="#00674f"
           d="m 57.335938,129.02344 0.378906,-0.27735 z m 0,0"
           fill-opacity="1"
           fill-rule="nonzero"
           id="path202" /><path
           fill="#00674f"
           d="m 57.855469,128.53516 0.386719,-0.27735 z m 0,0"
           fill-opacity="1"
           fill-rule="nonzero"
           id="path203" /><path
           fill="#00674f"
           d="m 58.746094,127.78125 c 0.132812,-0.0859 0.257812,-0.18359 0.382812,-0.27734 -0.125,0.0937 -0.25,0.1914 -0.382812,0.27734 z m 0,0"
           fill-opacity="1"
           fill-rule="nonzero"
           id="path204" /><path
           fill="#00674f"
           d="m 59.640625,127.03516 0.378906,-0.27735 z m 0,0"
           fill-opacity="1"
           fill-rule="nonzero"
           id="path205" /><path
           fill="#00674f"
           d="m 60.003906,126.77344 0.382813,-0.28125 z m 0,0"
           fill-opacity="1"
           fill-rule="nonzero"
           id="path206" /><path
           fill="#00674f"
           d="m 61.980469,125.23438 0.386719,-0.26954 z m 0,0"
           fill-opacity="1"
           fill-rule="nonzero"
           id="path207" /><path
           fill="#00674f"
           d="m 62.34375,124.98047 0.382812,-0.27734 z m 0,0"
           fill-opacity="1"
           fill-rule="nonzero"
           id="path208" /><path
           fill="#00674f"
           d="m 57.695312,128.76172 0.179688,-0.25 z m 0,0"
           fill-opacity="1"
           fill-rule="nonzero"
           id="path209" /><path
           fill="#00674f"
           d="M 74.03125,75.464844 C 71.242188,81.507812 68.113281,87.375 64.648438,93.058594 L 63.984375,94.128906 63.910156,94.25 c -0.351562,0.5625 -0.730468,1.128906 -1.0625,1.683594 l -0.05859,0.09375 c -0.386718,0.617187 -0.773437,1.222656 -1.167968,1.828125 -0.117188,0.191406 0.175781,0.351562 0.300781,0.167969 3.792969,-5.46875 7.140625,-11.203126 10.039063,-17.199219 0.828124,-1.699219 1.621093,-3.421875 2.378906,-5.164063 0.136718,-0.226562 -0.183594,-0.429687 -0.308594,-0.195312 z m 0,0"
           fill-opacity="1"
           fill-rule="nonzero"
           id="path210" /><path
           fill="#00674f"
           d="m 63.617188,95.011719 c -0.05859,0.08984 -0.117188,0.167969 -0.183594,0.25 0.06641,-0.08203 0.125,-0.160157 0.183594,-0.25 z m 0,0"
           fill-opacity="1"
           fill-rule="nonzero"
           id="path211" /><path
           fill="#00674f"
           d="m 62.453125,96.8125 -0.179687,0.246094 c 0.09375,-0.07813 0.179687,-0.160156 0.179687,-0.246094 z m 0,0"
           fill-opacity="1"
           fill-rule="nonzero"
           id="path212" /><g
           clip-path="url(#201645a725)"
           id="g213"><path
             fill="#00674f"
             d="m 40.714844,142.88281 c -0.15625,0.32031 -0.265625,0.66406 -0.398438,0.9961 l 6.09375,-8.14844 c 2.964844,-4.07031 6.234375,-7.87891 9.804688,-11.42969 6.304687,-6.23437 13.554687,-11.04297 21.75,-14.42187 3.882812,-1.57813 7.753906,-3.19532 11.628906,-4.78907 0.304688,-0.125 0.589844,-0.32812 0.941406,-0.16015 0.234375,0.29297 0,0.49609 -0.136718,0.73047 -1.0625,1.36718 -2.078126,2.76953 -3.191407,4.09375 -2.46875,2.92578 -4.933593,5.85156 -7.5,8.69531 -3.671875,4.00781 -7.609375,7.73047 -11.8125,11.17578 -1.714843,1.42969 -3.546875,2.69531 -5.492187,3.79297 -1.777344,0.99609 -3.566406,1.9414 -5.359375,2.89062 -2.882813,1.52735 -5.851563,2.92578 -8.621094,4.61328 -2.953125,1.69532 -5.753906,3.60547 -8.410156,5.73438 -0.453125,0.37891 -0.894531,0.79687 -1.332031,1.20703 -0.757813,0.71094 -1.382813,1.52344 -1.871094,2.44141 -3.1875,5.80859 -6.5,11.54687 -10.046875,17.14843 -2.480469,3.90625 -5.019531,7.77344 -7.710938,11.54688 -2.976562,4.17578 -5.847656,8.40234 -8.773437,12.625 -1.464844,2.13281 -2.925782,4.26172 -4.34375,6.45703 -1.25,1.99219 -2.15625,4.12891 -2.722656,6.41016 -0.085938,0.34375 -0.203126,0.6875 -0.296876,0.98047 -0.378906,0.16796 -0.765624,0.20312 -1.164062,0.10937 l -0.6875,0.51172 C 0.960938,206 0.835938,205.94141 0.828125,205.86719 c -0.03125,-0.25782 -0.046875,-0.51953 -0.042969,-0.78125 0.019532,-0.29297 0.019532,-0.58985 0,-0.88282 -0.085937,-0.59375 0.058594,-1.125 0.429688,-1.59765 3.109375,-4.25391 5.757812,-8.77344 8.460937,-13.31641 2.707031,-4.53906 5.523438,-8.77344 8.628907,-12.96484 0.972656,-1.3086 1.851562,-2.6836 2.796874,-4.01563 0.800782,-1.14062 1.628907,-2.27343 2.449219,-3.40625 0.269531,-0.375 0.539063,-0.73047 0.832031,-1.12109 0.605469,-0.75391 0.910157,-1.61328 0.90625,-2.57813 0.04688,-1.86718 -0.05078,-3.73046 -0.292968,-5.58203 -0.589844,-4.23437 -1.628906,-8.35547 -3.113282,-12.36718 -0.957031,-2.625 -1.742187,-5.3086 -2.558593,-7.98438 -0.820313,-2.67578 -1.667969,-5.54297 -2.453125,-8.32812 -0.367188,-1.31641 -0.6875,-2.64454 -0.957032,-3.98047 -0.414062,-2.08985 -0.730468,-4.19531 -1.132812,-6.29688 -0.785156,-4.70312 -1.199219,-9.4375 -1.234375,-14.20703 -0.04687,-2.39062 -0.199219,-4.78125 -0.300781,-7.183592 -0.01953,-0.265626 -0.01953,-0.53125 0,-0.796876 0,-0.1875 0.0625,-0.351562 0.191406,-0.492187 0.125,-0.140625 0.285156,-0.21875 0.472656,-0.238281 0.132813,0.08984 0.328125,0.191406 0.511719,0.328125 0.101563,0.08984 0.183594,0.191406 0.25,0.308593 1.996094,2.699218 4.035156,5.374998 5.980469,8.117188 2.011718,2.95703 3.644531,6.11328 4.894531,9.46484 1.390625,3.44141 2.367187,6.9961 2.925781,10.66797 0.523438,3.65625 1.089844,7.3711 1.550782,11.07031 0.3125,2.4336 0.390624,4.8711 0.226562,7.31641 -0.25,3.65625 -0.292969,7.3125 -0.894531,10.96875 -0.191407,1.14844 -0.410157,2.29688 -0.589844,3.44531 -0.06641,0.37891 -0.08203,0.76563 -0.113281,1.15235 0.625,-1.00782 1.296875,-1.9961 1.867187,-3.03516 1.046875,-1.89453 2.25,-3.69141 3.414063,-5.51953 2.613281,-4.21875 4.984375,-8.57031 7.117187,-13.05469 1.066407,-2.15234 1.980469,-4.36328 2.75,-6.64062 1.226563,-3.86719 1.832031,-7.83203 1.8125,-11.89063 -0.03125,-2.90625 -0.394531,-5.77343 -1.089843,-8.59765 -0.898438,-3.80078 -2.234376,-7.44141 -4.007813,-10.91797 -2.5,-5.121096 -4.980469,-10.238284 -7.136719,-15.511721 -2.175781,-5.082031 -3.59375,-10.367188 -4.25,-15.855469 -0.160156,-1.625 -0.253906,-3.253906 -0.359375,-4.878906 0,-0.414063 -0.0625,-0.890625 0.453125,-1.058594 0.398438,0 0.558594,0.261719 0.734375,0.511719 l 7.632813,11.453125 c 2.191406,3.429687 4.058594,7.03125 5.59375,10.800781 1.117187,2.488281 2.089844,5.03125 2.925781,7.625 1.035156,3.320313 1.710937,6.707035 2.035156,10.167965 0.121094,1.28516 0.285157,2.58204 0.363281,3.875 0.289063,3.53516 0.269532,7.06641 -0.05859,10.59766 0,0.1875 0,0.39453 -0.05078,0.80859 0.183593,-0.34765 0.277343,-0.52343 0.359374,-0.73046 0.417969,-0.94141 0.824219,-1.88672 1.226563,-2.83594 0.175781,-0.32813 0.289063,-0.67188 0.339844,-1.03906 0.02734,-0.88672 0.289062,-1.69922 0.78125,-2.4336 0.464843,-0.79297 0.761719,-1.64062 0.890625,-2.54687 0.503906,-2.71485 1.015625,-5.42578 1.59375,-8.13282 0.785156,-3.585934 1.226562,-7.210934 1.324218,-10.878902 0.06641,-1.695313 0.21875,-3.382813 0.460938,-5.0625 0.417969,-3.664063 0.640625,-7.339844 0.671875,-11.027344 0,-0.5625 0,-1.132813 0.04687,-1.695313 0.105469,-2.179687 -0.210938,-4.296875 -0.953125,-6.347656 -0.367187,-1.039063 -0.8125,-2.039063 -1.335937,-3.007813 C 53.070312,62.265625 52.339844,60.875 51.527344,59.515625 50.496094,57.804688 49.429688,56.113281 48.265625,54.5 45.570312,50.753906 43.375,46.734375 41.6875,42.4375 40.957031,40.429688 40.414062,38.375 40.054688,36.265625 c -0.59375,-3.003906 -1.140626,-6.015625 -1.6875,-9.03125 -0.175782,-0.980469 -0.300782,-1.972656 -0.425782,-2.925781 -0.03516,-0.367188 -0.05469,-0.734375 -0.05078,-1.101563 l 0.527344,-0.265625 c 0.128906,0.08203 0.246093,0.109375 0.296875,0.183594 1.625,2.203125 3.414062,4.253906 5.375,6.15625 2.609375,2.664062 4.785156,5.640625 6.53125,8.929688 0.527344,1.042968 0.964844,2.125 1.304687,3.242187 0.53125,1.570313 1.015625,3.164063 1.460938,4.765625 0.660156,2.445312 1.148437,4.925781 1.460937,7.4375 0.117188,0.878906 0.277344,1.757812 0.382813,2.421875 0.136719,-3.773437 -0.167969,-7.765625 0.125,-11.753906 0.21875,-2.992188 0.734375,-5.929688 1.546875,-8.816407 1.460937,-4.992187 3.265625,-9.855468 5.414062,-14.589843 3.046875,-6.828125 6.644532,-13.351563 10.792969,-19.570313 0.113281,-0.203125 0.253906,-0.390625 0.417969,-0.554687 0.175781,-0.105469 0.367187,-0.175781 0.570312,-0.21875 0.07813,0.199219 0.121094,0.40625 0.136719,0.621093 -0.09375,1.996094 -0.04297,3.992188 0.164063,5.980469 0.128906,1.753907 0.335937,3.511719 0.488281,5.265625 0.09375,1.125 0.21875,2.253906 0.234375,3.386719 0.02734,2.234375 -0.148438,4.453125 -0.527344,6.652344 -0.40625,2.367187 -0.9375,4.703125 -1.601562,7.007812 -0.921876,3.339844 -2.0625,6.605469 -3.421876,9.792969 -2.195312,5.042969 -4.621093,9.964844 -7.117187,14.859375 -1.710937,3.320313 -3.152344,6.753906 -4.3125,10.304687 -0.726563,2.203126 -0.996094,4.464844 -0.804687,6.777344 0.648437,7.695313 0.386718,15.359375 -0.789063,22.992188 -0.449219,2.925781 -0.9375,5.785156 -1.398437,8.671876 -0.03516,0.24219 -0.05078,0.48828 -0.05078,0.73437 0.152344,-0.30859 0.285156,-0.625 0.394532,-0.95312 0.8125,-3.019532 1.632812,-6.039064 2.40625,-9.07422 1.488281,-6.058594 3.460937,-11.953125 5.921874,-17.683594 2.351563,-5.203125 5.171876,-10.132812 8.46875,-14.792968 3.800782,-5.335938 8.117188,-10.210938 12.953126,-14.625 0.730468,-0.683594 1.527343,-1.289063 2.304687,-1.925782 0.230469,-0.1875 0.464844,-0.371094 0.855469,-0.144531 0.0039,0.183594 -0.02734,0.359375 -0.08984,0.53125 -2.835938,5.273437 -4.789062,10.890625 -6.582031,16.585937 -1.972657,6.320313 -4.101563,12.59375 -6.179688,18.890626 -0.628906,1.828124 -1.421875,3.585937 -2.382812,5.265624 -2.371094,4.300782 -4.957031,8.445313 -8.402344,11.984376 -1.324219,1.355468 -2.734375,2.632812 -4.109375,3.941402 -0.839844,0.80469 -1.683594,1.60938 -2.546875,2.39454 -1.386719,1.35546 -2.605469,2.84765 -3.65625,4.48046 -0.230469,0.3711 -0.402344,0.76563 -0.511719,1.1875 -0.496094,1.65235 -0.964844,3.31641 -1.460937,4.98438 -1.59375,5.68359 -3.597657,11.21875 -6.019531,16.60156 -0.273438,0.64453 -0.589844,1.26953 -0.941407,1.87109 -0.910156,1.59375 -1.734375,3.22657 -2.480469,4.90235 -0.71875,1.62109 -1.535156,3.22265 -2.324218,4.83984 z M 59.25,58.527344 C 59.640625,57.007812 60.054688,55.5 60.515625,54 c 0.328125,-1.101562 0.730469,-2.191406 1.082031,-3.273438 v -0.07422 c 0.08203,-0.277344 0.125,-0.570313 0.183594,-0.863282 l 0.183594,-0.132812 c 0.07422,-0.203125 0.144531,-0.402344 0.226562,-0.605469 0.01953,-0.07031 0.04297,-0.140625 0.07422,-0.207031 0.664063,-1.753906 1.382813,-3.496094 2.125,-5.226562 1.542969,-3.605469 3.089844,-7.183594 4.644531,-10.742188 v -0.05078 c 1.066406,-2.886719 1.953125,-5.828125 2.664063,-8.820313 0.472656,-1.96875 0.847656,-3.957031 1.359375,-5.917968 0.652344,-2.890626 0.898437,-5.816407 0.730468,-8.773438 -1.3125,7.273438 -2.96875,14.46875 -4.972656,21.585938 -0.01172,0.05469 -0.04297,0.09375 -0.09375,0.113281 -0.05078,0.02344 -0.09766,0.02344 -0.148437,-0.0039 -0.582031,1.828126 -1.207031,3.644532 -1.871094,5.441407 -1.460937,3.957031 -3,7.890625 -4.484375,11.832031 -0.179688,0.5 -0.285156,1.015625 -0.421875,1.523438 -0.140625,0.296874 -0.308594,0.582031 -0.417969,0.890624 -0.476562,1.382813 -0.972656,2.757813 -1.394531,4.152344 -0.390625,1.273438 -0.734375,2.5625 -1.046875,3.847656 -0.03906,0.214844 -0.05078,0.433594 -0.04297,0.652344 0.121094,-0.285162 0.246094,-0.5586 0.355469,-0.820318 z M 74.28125,10.925781 c -0.04687,0.511719 -0.06641,1.027344 -0.08203,1.542969 -0.01953,1.9375 -0.265625,3.84375 -0.730469,5.71875 -0.410156,1.617188 -0.796875,3.234375 -1.140625,4.859375 -0.746094,3.355469 -1.71875,6.644531 -2.925781,9.863281 0.01953,0.05078 0.01953,0.09766 0,0.144532 -0.191406,0.441406 -0.375,0.886718 -0.5625,1.332031 0,0.06641 -0.05859,0.132812 -0.08203,0.199219 -0.628906,1.5 -1.25,2.988281 -1.878906,4.480468 -1.460937,3.539063 -3.09375,7.058594 -4.386718,10.664063 -0.90625,2.472656 -1.652344,5 -2.40625,7.523437 l 0.90625,-1.871094 c 2.925781,-5.515624 5.617187,-11.109374 8.109374,-16.820312 0.867188,-1.871094 1.632813,-3.785156 2.296876,-5.738281 1.457031,-4.582031 2.445312,-9.257813 2.96875,-14.035157 0.230468,-2.625 0.203124,-5.242187 -0.08594,-7.863281 z m -0.9375,-6.953125 c -0.535156,1.324219 -1.0625,2.648438 -1.558594,3.984375 -1.242187,3.351563 -2.304687,6.765625 -3.390625,10.167969 -1.089843,3.398438 -2.195312,6.910156 -3.34375,10.367188 -0.01172,0.03125 -0.03125,0.05469 -0.05859,0.07422 -0.08594,0.320313 -0.183594,0.644532 -0.277344,0.964844 -0.730469,2.65625 -1.273438,5.359375 -1.9375,8.042969 -0.929688,3.710937 -1.9375,7.386719 -2.648438,11.140625 -0.07422,0.363281 -0.08594,0.730468 -0.125,1.101562 0.132813,-0.328125 0.257813,-0.65625 0.382813,-0.992187 1.664062,-5.609375 3.53125,-11.152344 5.410156,-16.683594 0.01563,-0.05469 0.05078,-0.08594 0.109375,-0.09375 0.167969,-0.480469 0.335938,-0.964844 0.488281,-1.460937 1.351563,-4.179688 2.699219,-8.382813 4.046875,-12.617188 0.21875,-0.730469 0.386719,-1.402344 0.5625,-2.113281 0.496094,-1.964844 0.988282,-3.925781 1.460938,-5.894531 0.511718,-1.761719 0.832031,-3.558594 0.960937,-5.386719 0.03125,-0.210938 0.0078,-0.410157 -0.08203,-0.601563 z m -0.535156,0 c -1.40625,3.070313 -2.757813,6.167969 -4.050782,9.289063 -2.648437,6.386719 -4.933593,12.898437 -6.859374,19.539062 -1.460938,5.046875 -2.765626,10.148438 -3.847657,15.296875 -0.1875,1.195313 -0.371093,2.386719 -0.496093,3.585938 -0.300782,2.835937 -0.535157,5.6875 -0.773438,8.535156 0.09375,0.628906 0.160156,1.261719 0.203125,1.90625 l 0.140625,0.160156 0.101562,-0.605468 c 0.0625,-0.05859 0.08594,-0.132813 0.07031,-0.21875 -0.01172,-0.08594 -0.05859,-0.144532 -0.136719,-0.183594 0.210938,-0.972656 0.4375,-1.945313 0.636719,-2.925782 1.382813,-6.777343 2.726563,-13.566406 4.527344,-20.257812 0.773437,-2.921875 1.316406,-5.847656 2.148437,-8.714844 0.08984,-0.292968 0.175782,-0.578125 0.257813,-0.871094 -0.0039,-0.02344 -0.0039,-0.04687 0,-0.07422 0.121093,-0.394532 0.246093,-0.789063 0.363281,-1.183594 1.140625,-3.78125 2.355469,-7.539062 3.53125,-11.3125 0.03125,-0.08203 0.07031,-0.164062 0.113281,-0.242188 0.371094,-1.191406 0.730469,-2.390624 1.132813,-3.582031 C 70.804688,9.1875 71.96875,6.394531 73.167969,3.59375 V 3.492188 Z m -7.539063,13.316406 c -1.214843,3.027344 -2.40625,6.054688 -3.507812,9.128907 -0.644531,1.796875 -1.261719,3.65625 -1.84375,5.445312 -0.257813,0.820313 -0.527344,1.640625 -0.789063,2.457031 0,0.01953 0,0.03906 0,0.05859 C 58.71875,36.195312 58.273438,38 57.875,39.820312 c -1.160156,5.453126 -1.691406,10.964844 -1.601562,16.535157 0,0.460937 0,0.921875 0.05469,1.390625 0.160156,-1.660156 0.378906,-3.304688 0.628906,-4.953125 -0.08203,-0.02344 -0.113281,-0.07813 -0.09766,-0.160157 0.351563,-2.019531 0.734375,-4.027343 1.148437,-6.03125 0,-0.08203 0,-0.15625 0,-0.234374 0.02344,-0.140626 0.05859,-0.277344 0.09375,-0.410157 0.332032,-1.585937 0.683594,-3.167969 1.054688,-4.753906 1.625,-6.710937 3.609375,-13.316406 5.960938,-19.8125 2.082031,-5.851563 4.46875,-11.582031 7.160156,-17.183594 -0.132813,0.191407 -0.273438,0.386719 -0.390625,0.585938 -2.433594,4.042969 -4.640625,8.210937 -6.617187,12.496093 z m -9.398437,37.230469 c 0.05078,-0.140625 0.08203,-0.285156 0.09766,-0.429687 0.02734,-4.238282 0.445312,-8.4375 1.265625,-12.59375 0.261719,-1.316406 0.496094,-2.648438 0.773437,-3.964844 -0.04687,-0.03516 -0.06641,-0.08203 -0.05078,-0.136719 0.5625,-1.894531 1.015625,-3.824219 1.59375,-5.71875 0.578125,-1.894531 1.179688,-3.703125 1.808594,-5.566406 0.457031,-1.332031 0.945313,-2.65625 1.460937,-3.972656 -0.148437,0.207031 -0.28125,0.421875 -0.394531,0.644531 -2.089843,4.652344 -3.808593,9.4375 -5.164062,14.355469 -0.722657,2.539062 -1.148438,5.128906 -1.277344,7.765625 -0.05859,1.464844 -0.183594,2.925781 -0.199219,4.390625 -0.02344,1.738281 0.08594,3.480469 0.08594,5.226562 z m 0,0.898438 h 0.171875 l -0.171875,-0.789063 z m 1.199218,7.972656 c 0,-0.410156 0.05469,-0.730469 0.08203,-1.105469 h -0.125 c -0.0078,0.382813 0.0078,0.746094 0.01563,1.105469 z m 0.04688,2.253906 c 0.191406,-0.578125 0.347656,-1.164062 0.472656,-1.757812 0.605468,-3.710938 1.496094,-7.351563 2.671875,-10.925781 1.5625,-4.570313 3.273437,-9.082032 4.988281,-13.585938 1.59375,-4.234375 3.054688,-8.519531 4.355469,-12.863281 1.609375,-6.273438 3,-12.613281 4.167969,-19.015625 V 6.035156 c -0.246094,0.855469 -0.386719,1.71875 -0.597657,2.574219 -0.695312,2.835937 -1.417969,5.667969 -2.128906,8.496094 -0.08203,0.324219 -0.175781,0.636719 -0.277344,0.960937 -1.710937,5.199219 -3.417969,10.398438 -5.121093,15.597656 -0.03516,0.101563 -0.08203,0.203126 -0.136719,0.300782 -0.132813,0.386718 -0.261719,0.78125 -0.386719,1.167968 0,0.05078 0,0.101563 0,0.148438 -0.667969,2.105469 -1.347656,4.210938 -2.019531,6.316406 -1.257813,3.855469 -2.398438,7.679688 -3.574219,11.496094 -0.01953,0.08594 -0.07422,0.128906 -0.164062,0.132812 -0.683594,2.429688 -1.203126,4.894532 -1.5625,7.390626 -0.191407,1.375 -0.453126,2.746093 -0.667969,4.117187 -0.03516,0.304687 -0.05078,0.605469 -0.05078,0.910156 z M 44.046875,30.007812 c 0.15625,0.261719 0.300781,0.519532 0.476563,0.730469 2.300781,3.359375 4.28125,6.902344 5.945312,10.617188 0.867188,1.839843 1.550781,3.746093 2.046875,5.71875 0.402344,1.609375 0.804687,3.226562 1.199219,4.835937 h 0.117187 C 53.539062,50.359375 53.3125,48.785156 52.933594,47.257812 52.480469,45.386719 51.871094,43.542969 51.375,41.6875 51.035156,40.355469 50.546875,39.085938 49.914062,37.867188 48.722656,35.710938 47.355469,33.667969 45.816406,31.738281 45.242188,31.023438 44.625,30.347656 43.960938,29.714844 c 0.0078,0.101562 0.02734,0.195312 0.05859,0.292968 z m -2.988281,-3.078124 c 1.132812,2.664062 2.445312,5.238281 3.933594,7.722656 0.957031,1.511718 1.828124,3.085937 2.683593,4.65625 0.6875,1.257812 1.316407,2.539062 1.914063,3.839844 0.542968,1.171874 1.03125,2.371093 1.507812,3.574218 0.578125,1.464844 1.113282,2.925782 1.652344,4.390625 0.285156,0.714844 0.53125,1.449219 0.730469,2.191407 0.324219,1.296874 0.5625,2.605468 0.835937,3.90625 0.07031,0.34375 0.117188,0.730468 0.167969,1.054687 -0.08984,-1.195313 -0.253906,-2.382813 -0.492187,-3.554687 -0.351563,-1.660157 -0.730469,-3.304688 -1.175782,-4.945313 -0.375,-1.460937 -0.730468,-2.976563 -1.183594,-4.429687 -1.128906,-3.277344 -2.570312,-6.414063 -4.324218,-9.40625 -1.335938,-2.40625 -2.878906,-4.703126 -4.386719,-7.035157 -0.554687,-0.753906 -1.167969,-1.457031 -1.84375,-2.105469 -0.02734,0.08203 -0.05859,0.117188 -0.05078,0.140626 z m -2.003906,-2.128907 c 0.152343,0.359375 0.296874,0.730469 0.460937,1.082031 1.371094,3.027344 2.746094,6.050782 4.121094,9.074219 0.851562,1.878907 1.597656,3.8125 2.582031,5.609375 2.671875,4.90625 4.8125,10.078125 7.007812,15.195313 0.175782,0.402343 0.335938,0.8125 0.496094,1.222656 -0.128906,-2.117187 -0.617187,-4.152344 -1.460937,-6.097656 -0.519531,-1.15625 -0.972657,-2.332031 -1.363281,-3.535157 -0.488282,-1.484374 -1.09375,-2.921874 -1.8125,-4.3125 -0.480469,-0.945312 -0.9375,-1.910156 -1.460938,-2.84375 -0.804688,-1.464843 -1.574219,-3.007812 -2.464844,-4.441406 -1.496094,-2.363281 -2.796875,-4.828125 -3.914062,-7.390625 -0.363282,-0.855469 -0.78125,-1.699219 -1.199219,-2.523437 -0.167969,-0.5 -0.5,-0.847656 -0.992187,-1.039063 z m 1.015624,5.164063 c 0.203126,1.042968 0.445313,2.066406 0.730469,3.085937 0.546875,1.886719 1.097657,3.765625 1.6875,5.628907 0.351563,1.214843 0.777344,2.398437 1.28125,3.554687 1.0625,2.257813 2.195313,4.460937 3.355469,6.683594 0.257812,0.496093 0.550781,0.988281 0.855469,1.464843 1.414062,2.175782 2.664062,4.441407 3.746093,6.800782 0.210938,0.460937 0.503907,0.882812 0.730469,1.320312 C 52.378906,58.167969 52.28125,57.839844 52.15625,57.519531 50.972656,54.820312 49.730469,52.105469 48.304688,49.539062 47.574219,48.171875 46.90625,46.746094 46.242188,45.335938 45.578125,43.921875 45.003906,42.542969 44.339844,41.167969 43.566406,39.582031 42.910156,37.949219 42.375,36.265625 41.699219,34.152344 40.921875,32.050781 40.039062,29.964844 Z M 53.042969,60.675781 C 52.890625,60.289062 52.757812,59.894531 52.574219,59.523438 52.0625,58.484375 51.5,57.460938 51.003906,56.414062 c -0.78125,-1.621093 -1.648437,-3.191406 -2.613281,-4.710937 -0.6875,-1.09375 -1.351563,-2.191406 -1.957031,-3.355469 -0.886719,-1.675781 -1.742188,-3.371094 -2.5625,-5.074218 -0.472656,-0.945313 -0.875,-1.921876 -1.207032,-2.925782 C 41.824219,37.589844 41.0625,34.8125 40.203125,31.8125 c 0.316406,2.523438 0.804687,5.015625 1.460937,7.476562 1.203126,4.542969 3.128907,8.761719 5.769532,12.648438 1.902344,2.847656 3.976562,5.582031 5.535156,8.644531 0.01563,0.02734 0.02734,0.05469 0.04297,0.08203 z m 0.07422,-1.578125 c 0.402343,1.054688 0.730468,2.136719 1.183593,3.167969 0.05469,-0.03125 0.109375,-0.03906 0.167969,-0.01563 0.05469,0.01953 0.09766,0.05859 0.117188,0.117188 l 0.605468,1.441406 c 0.0039,-0.316406 -0.02344,-0.628906 -0.07813,-0.9375 -0.160156,-0.730469 -0.402343,-1.460938 -0.609375,-2.195313 -0.808594,-2.671875 -1.785156,-5.28125 -2.921875,-7.832031 -1.570312,-3.851562 -3.339843,-7.613281 -5.304687,-11.28125 -1.019532,-1.902344 -1.9375,-3.851562 -2.757813,-5.851562 -1.023437,-2.421876 -2.105469,-4.8125 -3.164062,-7.21875 -0.109375,-0.230469 -0.234375,-0.453126 -0.367188,-0.671876 0.128907,0.75 0.324219,1.480469 0.585938,2.195313 0.597656,1.660156 1.265625,3.296875 1.820312,4.964844 0.660157,2.097656 1.460938,4.140625 2.398438,6.128906 0.667969,1.335937 1.242187,2.71875 1.878906,4.070313 0.734375,1.507812 1.414063,3.015624 2.195313,4.5 1.574218,3.058593 2.980468,6.195312 4.21875,9.402343 z M 56.60547,75.257812 C 56.75,74.988281 56.707031,74.710938 56.53125,74.25 c 0.01563,0.460938 0.03516,0.738281 0.07422,1.007812 z m 0.128906,0.878907 -0.128906,-0.804688 c -0.128907,0.292969 -0.09375,0.558594 0.109375,0.804688 z m -0.152344,2.597656 c 0.113281,-0.289063 0.08203,-0.5625 -0.08594,-0.820313 0.01953,0.394532 0.04297,0.613282 0.0625,0.820313 z m -1.039062,12.46875 c 0.08203,-0.238281 0.14453,-0.484375 0.191405,-0.734375 0.292969,-2.191406 0.554687,-4.335938 0.871094,-6.492188 0.246093,-1.738281 0.246093,-3.476562 0,-5.214843 -0.04297,0.08203 -0.07422,0.167969 -0.08984,0.257812 -0.08594,3.496094 -0.589844,6.945313 -0.929687,10.417969 -0.05078,0.589844 -0.07422,1.175781 -0.0625,1.765625 z M 74.996094,79.039062 c -0.144532,0.214844 -0.300782,0.425782 -0.425782,0.644532 -0.949218,1.675781 -1.886718,3.363281 -2.851562,5.03125 -2.105469,3.65625 -4.640625,7.035156 -7.085938,10.472656 -0.730468,1 -1.519531,1.929688 -2.289062,2.925781 l -2.082031,2.476559 c 0.222656,-0.12109 0.429687,-0.26562 0.628906,-0.42968 1.308594,-1.273441 2.652344,-2.507816 3.898437,-3.84766 2.980469,-3.378906 5.511719,-7.070312 7.589844,-11.070312 0.953125,-1.679688 1.746094,-3.433594 2.375,-5.257813 0.132813,-0.308594 0.132813,-0.628906 0.242188,-0.945313 z M 85.695312,48.816406 c -0.273437,0.304688 -0.515624,0.632813 -0.730468,0.980469 -1.304688,2.308594 -2.582032,4.503906 -3.714844,6.84375 -1.367188,2.808594 -2.597656,5.691406 -3.855469,8.550781 -1.316406,2.976563 -2.648437,5.949219 -3.890625,8.964844 -0.957031,2.300781 -1.914062,4.597656 -3.050781,6.820312 -0.800781,1.570313 -1.597656,3.144532 -2.382813,4.726563 -1.457031,2.914063 -3.085937,5.734375 -4.882812,8.453125 -1.515625,2.304688 -2.882812,4.703125 -4.308594,7.07031 -0.148437,0.28125 -0.273437,0.56641 -0.378906,0.86328 0.105469,-0.0742 0.207031,-0.16015 0.296875,-0.2539 0.960937,-1.33203 1.910156,-2.671878 2.875,-4.000002 0.183594,-0.265626 0.402344,-0.507813 0.605469,-0.734376 l 0.273437,0.171876 c 0.46875,-0.59375 0.933594,-1.15625 1.367188,-1.75 1.460937,-2.046876 2.925781,-4.105469 4.386719,-6.171876 0.210937,-0.292968 0.410156,-0.605468 0.613281,-0.90625 2.890625,-4.371093 5.398437,-8.949218 7.527343,-13.734374 0.320313,-0.730469 0.640626,-1.460938 0.890626,-2.195313 1.667968,-5.023437 3.324218,-10.050781 4.964843,-15.078125 0.0625,-0.242188 0.109375,-0.484375 0.140625,-0.730469 -0.109375,0.109375 -0.199218,0.230469 -0.269531,0.363281 -0.734375,1.699219 -1.523437,3.394532 -2.195313,5.121094 -0.671874,1.726563 -1.332031,3.402344 -2.011718,5.117188 -0.535156,1.324218 -1.109375,2.632812 -1.644532,3.957031 -1.003906,2.539063 -2.148437,5.007813 -3.429687,7.417969 -0.15625,0.253906 -0.328125,0.496094 -0.519531,0.730468 0.109375,-0.375 0.246094,-0.742187 0.402344,-1.097656 2.484374,-4.796875 4.253906,-9.902344 6.375,-14.851562 0.117187,-0.277344 0.199218,-0.570313 0.300781,-0.847656 0.628906,-1.789063 1.363281,-3.535157 2.195312,-5.238282 1.191407,-2.523437 2.652344,-4.914062 3.707031,-7.511718 0.167969,-0.453126 0.25,-0.75 0.34375,-1.050782 z M 74.066406,63.96875 73.671875,64.648438 c -0.140625,0.183593 -0.273437,0.371093 -0.394531,0.570312 -2.558594,4.886719 -4.972656,9.84375 -7.167969,14.898438 -2.191406,5.050781 -4.296875,10.148437 -6.433594,15.238281 -0.132812,0.300781 -0.210937,0.621093 -0.320312,0.9375 l -0.199219,0.554687 0.269531,-0.511718 c 0.34375,-0.492188 0.734375,-0.964844 1.019531,-1.464844 2.191407,-3.457032 3.984376,-7.128906 5.9375,-10.71875 0.269532,-0.5 0.515626,-1.015625 0.730469,-1.542969 1.226563,-3.121094 2.515625,-6.222656 3.523438,-9.425781 0.292969,-0.914063 0.730469,-1.792969 1.054687,-2.691406 0.707032,-1.949219 1.410156,-3.882813 2.113282,-5.792969 z m -0.804687,3.136719 c -0.496094,1.230469 -0.972657,2.472656 -1.460938,3.707031 -0.425781,1.113281 -0.855469,2.195312 -1.265625,3.351562 -0.08594,0.296876 -0.15625,0.597657 -0.203125,0.90625 0.160157,-0.234374 0.296875,-0.476562 0.414063,-0.730468 0.734375,-1.84375 1.53125,-3.65625 2.261718,-5.542969 1.292969,-3.355469 2.894532,-6.554687 4.804688,-9.597656 0.816406,-1.285157 1.578125,-2.617188 2.355469,-3.933594 0.121093,-0.238281 0.230469,-0.480469 0.328125,-0.730469 -0.08984,0.109375 -0.183594,0.21875 -0.269532,0.335938 -2.136718,3.011718 -4.058593,6.152344 -5.773437,9.417968 C 74,65.203125 73.601562,66.144531 73.261719,67.105469 Z m -7.097657,18.902343 c -1.347656,2.824219 -2.699218,5.640626 -4.039062,8.46875 -0.105469,0.265626 -0.195312,0.53125 -0.269531,0.804688 0.07031,-0.05078 0.136719,-0.109375 0.195312,-0.175781 1.308594,-2.039063 2.765625,-4.011719 3.898438,-6.148438 2.78125,-5.238281 5.601562,-10.449219 7.6875,-16.015625 0.117187,-0.316406 0.253906,-0.613281 0.394531,-0.914062 1.394531,-3.203125 2.835938,-6.390625 4.199219,-9.609375 1.433593,-3.480469 3.066406,-6.867188 4.898437,-10.15625 0.140625,-0.285157 0.257813,-0.582031 0.351563,-0.886719 -0.242188,0.203125 -0.464844,0.425781 -0.667969,0.664062 -0.460938,0.617188 -0.921875,1.230469 -1.324219,1.882813 -1.257812,2.03125 -2.46875,4.101563 -3.742187,6.125 -1.589844,2.546875 -2.945313,5.214844 -4.058594,8.003906 -0.730469,1.789063 -1.460938,3.574219 -2.195312,5.367188 -1.726563,4.234375 -3.363282,8.472656 -5.328126,12.589843 z m 15.78125,-33.46875 c 0.195313,-0.269531 0.378907,-0.550781 0.597657,-0.796874 1.46875,-1.632813 2.816406,-3.363282 4.042969,-5.1875 l 0.285156,-0.4375 c -0.457032,0.214843 -0.867188,0.507812 -1.21875,0.871093 -1.507813,1.667969 -2.742188,3.519531 -3.707032,5.550781 z M 58.066406,94.625 c 0.125,-0.316406 0.257813,-0.628906 0.367188,-0.953125 0.867187,-2.542969 1.671875,-5.117187 2.617187,-7.632813 0.941407,-2.515624 2.003907,-4.921874 3.054688,-7.363281 0.777343,-1.800781 1.582031,-3.589843 2.4375,-5.355469 0.855469,-1.761718 1.777343,-3.496093 2.675781,-5.234374 1.246094,-2.429688 2.660156,-4.757813 4.242188,-6.984376 0.863281,-1.214843 1.734374,-2.433593 2.589843,-3.65625 0.1875,-0.277343 0.347657,-0.585937 0.519531,-0.886718 -0.269531,0.222656 -0.511718,0.464844 -0.734374,0.734375 -1.503907,2.03125 -3.039063,4.042969 -4.472657,6.121093 -6.25,9.226563 -10.625,19.269532 -13.128906,30.128907 -0.04297,0.335937 -0.07813,0.714843 -0.167969,1.082031 z m -0.78125,5.015625 c 0.175782,-0.261719 0.332032,-0.53125 0.472656,-0.8125 2.273438,-5.308594 4.546876,-10.644531 6.816407,-16.007813 0.628906,-1.460937 1.179687,-2.976562 1.875,-4.386718 1.972656,-4.148438 3.96875,-8.285156 6.03125,-12.433594 2.042969,-4.011719 4.398437,-7.832031 7.070312,-11.457031 0.914063,-1.265625 1.878907,-2.503907 2.796875,-3.773438 0.222656,-0.34375 0.417969,-0.703125 0.582032,-1.074219 -0.730469,0.914063 -1.410157,1.832032 -2.132813,2.742188 -0.214844,0.238281 -0.445313,0.464844 -0.6875,0.679688 0.04297,-0.132813 0.08594,-0.265626 0.121094,-0.394532 -0.332031,0.292969 -0.644531,0.609375 -0.933594,0.949219 -1.484375,2.089844 -3.011719,4.210937 -4.5625,6.296875 -2.160156,2.890625 -4.058594,5.941406 -5.699219,9.15625 -2.039062,3.792969 -3.851562,7.695312 -5.441406,11.699219 -0.40625,1.089843 -0.863281,2.195312 -1.328125,3.226562 -1.183594,2.753907 -2.21875,5.558594 -3.101563,8.421875 -0.06641,0.207032 -0.09375,0.425782 -0.140624,0.628906 0.214843,-0.308593 0.402343,-0.632812 0.5625,-0.972656 1.464843,-3.488281 2.796874,-7.027344 4.300781,-10.5 1.019531,-2.347656 1.925781,-4.738281 3.09375,-7.011718 0.46875,-0.914063 0.914062,-1.851563 1.339843,-2.78125 1.007813,-2.136719 2.171876,-4.1875 3.488282,-6.148438 0.15625,-0.203125 0.328125,-0.394531 0.519531,-0.570312 -0.167969,0.351562 -0.308594,0.730468 -0.503906,1.058593 -0.84375,1.507813 -1.757813,2.976563 -2.546875,4.511719 -2.925782,5.769531 -5.425782,11.761719 -7.859375,17.765625 -0.675781,1.667969 -1.355469,3.328125 -2.070313,4.964844 -0.796875,1.722656 -1.445312,3.5 -1.945312,5.332031 -0.06641,0.269531 -0.06641,0.582031 -0.117188,0.890625 z m -2.027344,6.210935 c 0.230469,-0.28515 0.472657,-0.55468 0.730469,-0.8125 0.761719,-0.80078 1.363281,-1.70312 1.808594,-2.71484 0.804687,-1.63672 1.652344,-3.253908 2.5,-4.863282 0.164063,-0.273438 0.355469,-0.53125 0.570313,-0.765626 0.05859,-0.25 0.136718,-0.496093 0.234374,-0.734374 L 64.3125,89.226562 c 0.105469,-0.238281 0.195312,-0.480468 0.269531,-0.730468 -0.191406,0.277344 -0.394531,0.546875 -0.554687,0.832031 -1.28125,2.253906 -2.507813,4.527344 -3.824219,6.75 -1.078125,1.789063 -2.050781,3.632813 -2.925781,5.531255 -0.492188,1.08984 -1.015625,2.1914 -1.464844,3.2539 -0.230469,0.3125 -0.605469,0.5625 -0.554688,0.99219 z m -1.046874,-3.91406 c 0.128906,-0.27734 0.230468,-0.5625 0.316406,-0.85547 0.167968,-0.83594 0.328125,-1.667968 0.453125,-2.507811 0.05859,-0.433594 0.05078,-0.878907 0.07422,-1.316407 -0.04688,0.105469 -0.08203,0.214844 -0.109376,0.328126 -0.242187,1.273437 -0.484374,2.546872 -0.734374,3.816402 -0.0078,0.17969 -0.0078,0.36329 0,0.54297 z m -0.335938,1.66797 0.222656,-0.9375 c -0.203125,0.28516 -0.273437,0.60156 -0.222656,0.94531 z m -0.730469,3.12891 c 0.457031,-0.9336 0.683594,-1.92188 0.679688,-2.96094 z m -6.675781,12.43359 0.09375,0.82422 c 0.148438,-0.28516 0.128906,-0.5586 -0.05859,-0.81641 z m -2.925781,-17.33984 c 0.02344,0.0469 0.02344,0.0977 0,0.14453 0.949219,2.58593 1.726562,5.22265 2.332031,7.90625 0.01172,-1.22266 -0.04687,-2.44141 -0.167969,-3.65625 -0.21875,-1.78516 -0.53125,-3.55469 -0.824219,-5.32422 -0.08203,-0.5 -0.210937,-0.984378 -0.382812,-1.46094 -0.351562,-0.964844 -0.730469,-1.917969 -1.109375,-2.882812 -0.667969,-1.878907 -1.289063,-3.78125 -1.945313,-5.660157 -0.90625,-2.367187 -1.972656,-4.65625 -3.195312,-6.875 -0.777344,-1.503906 -1.53125,-3.027343 -2.289062,-4.53125 -0.453126,-0.894531 -0.855469,-1.816406 -1.367188,-2.664062 -1.203125,-1.925781 -2.207031,-3.945313 -3.007812,-6.070313 l -0.132813,-0.359375 c -0.05859,0.246094 -0.05859,0.488281 0,0.734375 0.734375,2.382813 1.421875,4.78125 2.195313,7.152344 1.148437,3.652344 2.5625,7.203125 4.242187,10.644531 0.06641,0.136719 0.125,0.277344 0.175781,0.417969 1.007813,1.828125 1.988282,3.65625 2.828125,5.585938 1.003907,2.257812 1.894531,4.558593 2.664063,6.906252 z m 2.824219,12.37109 0.152343,4.03125 c 0.164063,-1.35156 0.109375,-2.69531 -0.152343,-4.03125 z m -14.5625,-46.421876 c 2.457031,4.132812 4.667968,8.394531 6.640624,12.777344 0.535157,0.90625 1.039063,1.820312 1.464844,2.765624 0.402344,0.832032 0.847656,1.652344 1.25,2.492188 0.730469,1.585938 1.542969,3.167969 2.191406,4.789062 0.960938,2.199219 1.714844,4.46875 2.269532,6.800782 0.246094,1.171875 0.503906,2.339844 0.789062,3.496096 0.59375,2.42969 0.945313,4.89453 1.054688,7.39453 0.152344,3.65625 0.08594,7.3125 -0.113282,10.96875 -0.0625,1.26562 -0.07031,2.53906 -0.109374,3.80859 0.04297,-0.13672 0.07422,-0.27343 0.09766,-0.41406 0.128906,-1.32422 0.238281,-2.65625 0.378906,-3.98047 0.339844,-3.61719 0.378906,-7.24219 0.109375,-10.86719 C 47.753906,106.58203 47.617188,105.35938 47.5,104.15234 47.222656,100.61719 46.539062,97.164062 45.453125,93.789062 44.71875,91.675781 43.945312,89.59375 43.113281,87.523438 42.054688,84.71875 40.820312,81.992188 39.410156,79.347656 37.21875,75.480469 34.6875,71.859375 32.222656,68.1875 c -0.04297,-0.08984 -0.101562,-0.171875 -0.175781,-0.242188 -0.08203,-0.05859 -0.167969,-0.117187 -0.253906,-0.167968 z m -0.597657,0.988281 c 0.386719,0.886719 0.730469,1.777344 1.101563,2.675781 0.519531,1.335938 1.136718,2.628906 1.851562,3.871094 0.730469,1.359375 1.464844,2.746094 2.195313,4.128906 0.796875,1.535156 1.5625,3.085938 2.359375,4.621094 1.21875,2.222656 2.277344,4.515625 3.175781,6.882812 0.90625,2.574219 1.828125,5.121094 2.734375,7.714844 0.652344,1.968754 1.0625,3.984374 1.230469,6.046874 0.203125,1.92578 0.296875,3.84766 0.464843,5.77344 0.191407,2.19141 0.402344,4.30469 0.609376,6.45703 0.01562,0.0898 0.04297,0.17578 0.07812,0.26172 0.125,-1.76953 0.175782,-3.52344 0.171876,-5.28516 0.07031,-2.46875 -0.08203,-4.92578 -0.457032,-7.36718 -0.347656,-1.85547 -0.730468,-3.71485 -1.089844,-5.57813 -0.671874,-3.34375 -1.722656,-6.5625 -3.144531,-9.660156 -1.230469,-2.90625 -2.640625,-5.722656 -4.226562,-8.453125 -0.03125,-0.01953 -0.05859,-0.04297 -0.07813,-0.07422 -0.05078,-0.117188 -0.117188,-0.234375 -0.167969,-0.351562 -0.25,-0.410157 -0.492187,-0.8125 -0.730469,-1.207032 -0.210937,-0.296875 -0.402344,-0.609375 -0.570312,-0.933594 -0.585938,-1.011718 -1.039063,-2.078124 -1.363282,-3.199218 -1.460937,-2.871094 -3.019531,-5.71875 -4.636718,-8.523438 0.04297,0.757813 0.203125,1.492188 0.476562,2.199219 z m -0.730469,-2.085937 c -0.0078,-0.222657 -0.02734,-0.449219 -0.06641,-0.671876 L 30.05859,65.417969 c -0.05469,0.472656 0.07031,0.894531 0.371094,1.261719 z m 15.355469,47.347652 c 0,0.15235 0.109375,0.29688 0.210938,0.59766 -0.03125,-2.60156 -0.425781,-5.14453 -1.183594,-7.63281 -0.484375,-1.70703 -1.007813,-3.39453 -1.59375,-5.0625 -0.167969,-0.48047 -0.34375,-0.96485 -0.527344,-1.46094 -0.371093,-1.003906 -0.773437,-1.996094 -1.214843,-2.984375 -0.382813,-0.800781 -0.691407,-1.625 -0.925782,-2.480469 C 39.859375,93.25 39.070312,91.519531 38.226562,89.8125 38.09375,89.679688 37.984375,89.53125 37.898438,89.367188 36.441406,86.5625 35.222656,83.65625 34.242188,80.648438 33.003906,76.992188 31.871094,73.25 30.921875,69.476562 c -0.09766,-0.359374 -0.160156,-0.734374 -0.269531,-1.0625 -0.08984,-0.234374 -0.195313,-0.460937 -0.316406,-0.679687 0.04687,1.472656 0.191406,2.933594 0.429687,4.386719 0.339844,1.894531 0.769531,3.78125 1.230469,5.652344 0.644531,2.722656 1.492187,5.382812 2.542968,7.972656 1.917969,4.609375 4.03125,9.125 6.210938,13.609375 2.371094,4.652341 4.050781,9.542971 5.039062,14.671871 z m 0.78125,7.14844 c 0.109375,-0.3125 0.109375,-0.6289 0,-0.9414 -0.01953,0.3125 -0.03516,0.61328 -0.04297,0.9414 z m -0.371093,6.13672 c 0.234374,-0.28906 0.386718,-0.62109 0.460937,-0.98828 0.07422,-0.32031 0.101563,-0.64844 0.175781,-0.96484 0.195313,-0.77344 0.195313,-1.54297 0,-2.31641 -0.382812,1.14844 -0.597656,2.32812 -0.652344,3.53906 -0.03516,0.24219 -0.01953,0.48438 -0.02734,0.73047 z m -1.464844,3.65625 c 0.265625,-0.53125 0.527344,-1.06641 0.800781,-1.60156 0.453125,-0.8711 0.554687,-1.78125 0.304687,-2.73438 -0.07812,0.21094 -0.175781,0.41797 -0.234374,0.62891 -0.269532,1.0625 -0.53125,2.12109 -0.796876,3.1875 -0.08594,0.18359 -0.101562,0.35937 -0.125,0.53515 z M 2.488281,203.20703 c -0.398437,0.3125 -0.621093,0.72266 -0.664062,1.23047 0.367187,-0.33203 0.589843,-0.74219 0.664062,-1.23047 z m 0.367188,0.41016 c -0.335938,0.30859 -0.480469,0.6914 -0.433594,1.14843 0.316406,-0.32031 0.460937,-0.70312 0.425781,-1.14843 z m 0.386719,-1.91016 -0.417969,0.78516 c 0.257812,-0.19922 0.390625,-0.46094 0.394531,-0.78516 z m 17.863281,-28.60156 c -0.121094,0.0898 -0.230469,0.1914 -0.328125,0.30859 -1.25,1.84375 -2.5,3.65625 -3.734375,5.52735 -0.117188,0.21484 -0.210938,0.43359 -0.28125,0.66796 0.820312,-1.0625 1.691406,-2.08593 2.4375,-3.1914 0.746093,-1.10156 1.273437,-2.1836 1.902343,-3.3125 z m 0.9375,-1.54297 c -0.410157,0.42187 -0.710938,0.91016 -0.90625,1.46484 0.417969,-0.41406 0.71875,-0.90234 0.898437,-1.46484 z m 6.039062,-43.10156 c 0.25,3.1875 0.519531,6.35937 0.804688,9.50781 0.378906,3.76953 0.460937,7.55078 0.25,11.33594 -0.01563,0.24218 -0.01563,0.48437 0,0.73047 0.101562,-0.79688 0.210937,-1.58594 0.300781,-2.38282 0.332031,-2.92578 0.351562,-5.85156 0.06641,-8.77734 -0.332031,-3.13672 -0.8125,-6.26172 -1.238281,-9.39063 -0.01953,-0.3125 -0.117187,-0.66406 -0.183594,-1.02343 z m -5.117187,18.68359 c 0,-0.11719 0,-0.23437 -0.05859,-0.34375 -0.695312,-3.25391 -1.566406,-6.46484 -2.617188,-9.62109 -0.402343,-1.23047 -0.820312,-2.45703 -1.121093,-3.71485 -0.511719,-2.13672 -0.925781,-4.29297 -1.394531,-6.4375 -0.140626,-0.64843 -0.367188,-1.27734 -0.492188,-1.92968 -0.859375,-4.3086 -1.496094,-8.65235 -1.90625,-13.02344 -0.08203,-0.89453 -0.140625,-1.79297 -0.207031,-2.68359 -0.136719,-1.92579 -0.253907,-3.84766 -0.410157,-5.76954 -0.03516,-0.50781 -0.152343,-1.01171 -0.230468,-1.52343 -0.04687,2.23828 0,4.46093 0,6.68359 0.01172,3.59766 0.277344,7.17578 0.796875,10.73438 0.328125,2.03515 0.605469,4.08203 1.015625,6.10937 0.410156,2.02344 0.863281,4.10156 1.460937,6.10547 1.289063,4.30078 2.671875,8.57031 4.03125,12.84765 0.277344,0.87891 0.605469,1.73438 0.914063,2.60547 z m 3.371094,16.57813 c -0.06641,-1.73047 -0.05078,-3.45704 -0.117188,-5.19141 -0.05078,-2.26563 -0.265625,-4.51563 -0.644531,-6.75 -0.371094,-2.09766 -0.730469,-4.20313 -1.039063,-6.30078 -0.05078,-0.30078 -0.101562,-0.59375 -0.167968,-0.88672 l -2.324219,-11.13672 c -0.152344,-0.73047 -0.320313,-1.46484 -0.484375,-2.14453 -0.3125,-1.33203 -0.65625,-2.65234 -0.941406,-3.98437 -0.585938,-2.73438 -1.140626,-5.46875 -1.71875,-8.20704 -0.269532,-1.26953 -0.585938,-2.52734 -0.863282,-3.79296 -0.402344,-1.82032 -0.839844,-3.65625 -1.167968,-5.47266 -0.507813,-2.8125 -0.929688,-5.64453 -1.382813,-8.47266 -0.03906,-0.22656 -0.07422,-0.46093 -0.132813,-0.6875 -0.167968,-0.55078 -0.488281,-0.988279 -0.964843,-1.308591 0.144531,0.914061 0.277343,1.593751 0.367187,2.289061 0.195313,1.64453 0.402344,3.29688 0.546875,4.94922 0.183594,2.02734 0.261719,4.05078 0.460938,6.07031 0.320312,3.41407 0.820312,6.8086 1.417969,10.1875 0.117187,0.64844 0.261718,1.30078 0.425781,1.94532 0.429687,1.8125 0.992187,3.60546 1.300781,5.43359 0.460938,2.45312 1.101562,4.86328 1.921875,7.22265 0.984375,2.76563 1.746094,5.59375 2.28125,8.47657 0.460937,2.96875 1.238281,5.85156 1.886719,8.77734 0.65625,2.87109 0.929687,5.77734 0.8125,8.72266 0,0.59375 0,1.17578 0,1.76953 0.394531,-0.42578 0.558594,-0.92969 0.492187,-1.50781 z m 0.730468,-2.49219 c 0.06641,-1.46094 0,-2.92578 0.03906,-4.38672 0.0078,-2.56641 -0.160157,-5.11719 -0.507813,-7.65625 -0.175781,-1.28906 -0.269531,-2.58203 -0.386718,-3.87109 -0.136719,-1.51954 -0.234376,-3.04688 -0.410157,-4.57032 -0.21875,-1.91406 -0.488281,-3.82422 -0.730469,-5.73828 -0.417968,-3.0664 -0.804687,-6.1289 -1.273437,-9.1875 -0.292969,-1.87109 -0.730469,-3.72265 -1.074219,-5.58593 -0.257812,-1.375 -0.640625,-2.71875 -1.148437,-4.02344 -0.453125,-1.17578 -0.90625,-2.35547 -1.308594,-3.55469 -0.722656,-2.17969 -1.597656,-4.30078 -2.632813,-6.35156 -0.5,-1.08985 -0.9375,-2.19922 -1.316406,-3.33594 -0.160156,-0.42578 -0.300781,-0.86328 -0.519531,-1.50781 -0.0078,0.14844 -0.0078,0.29297 0,0.4414 0.578125,3.88282 1.222656,7.75782 2.136719,11.57422 0.253906,1.06641 0.480468,2.14453 0.730468,3.21094 0.730469,3.04297 1.527344,6.0625 2.019532,9.15625 0.08984,0.66016 0.214844,1.3125 0.378906,1.96094 0.769531,2.86328 1.410156,5.75781 1.917969,8.67187 0.101562,0.58594 0.203125,1.17578 0.351562,1.75391 0.730469,2.875 1.292969,5.78515 1.78125,8.70312 0.175781,1.05469 0.316407,2.10547 0.535157,3.15235 0.71875,3.73828 1.042968,7.50781 0.972656,11.3125 0,0.73047 0.04297,1.46484 0.07422,2.23047 0.167969,-0.79297 0.289063,-1.58985 0.363282,-2.39844 z m 0.601563,-1.19141 c -0.08984,0.19922 -0.144531,0.40625 -0.160157,0.6211 0,0.41015 -0.05469,0.83203 -0.07422,1.25 0.328125,-0.59375 0.40625,-1.21485 0.226562,-1.8711 z m -0.25,-3.21094 c 0.05078,-0.14062 0.08594,-0.28906 0.101562,-0.4375 0,-1.42578 0.125,-2.85156 0.08984,-4.28515 -0.101563,-3.35938 -0.46875,-6.69141 -0.785156,-10.03516 -0.203125,-2.19531 -0.378907,-4.38672 -0.582031,-6.58203 -0.167969,-1.78516 -0.300782,-3.57422 -0.558594,-5.35156 -0.460938,-3.23438 -1,-6.44922 -1.511719,-9.66797 -0.08594,-0.66016 -0.214844,-1.31641 -0.382813,-1.96094 -0.976562,-3.70703 -2.265624,-7.30078 -3.859374,-10.78515 -0.230469,-0.44141 -0.425782,-0.90235 -0.578126,-1.375 -0.300781,-0.96485 -0.789062,-1.82422 -1.460937,-2.57422 -0.449219,-0.52735 -0.855469,-1.08203 -1.425781,-1.8086 0.02344,0.21094 0.05469,0.41797 0.101562,0.625 0.546875,1.53516 1.179688,3.03516 1.902344,4.4961 0.527344,1.07422 1,2.17187 1.417969,3.29687 0.628906,1.6836 1.183593,3.38672 1.777343,5.08203 0.390626,0.95704 0.726563,1.92969 1,2.92579 0.578126,2.77343 1.082032,5.55078 1.566407,8.33593 0.21875,1.3125 0.300781,2.64844 0.480469,3.96485 0.492187,3.65625 1.003906,7.3125 1.464843,10.96875 0,0.22656 0.04297,0.46093 0.06641,0.69531 0.175781,2.19531 0.296874,4.38672 0.546874,6.58203 0.242188,2.01953 0.476563,4.03125 0.519532,6.0625 0.04297,0.60547 0.04297,1.21484 0.101562,1.82812 z m 0.320312,1.52735 c 0.359375,-1.1836 0.605469,-2.39063 0.734375,-3.61719 0.128906,-1.35547 0.136719,-2.72266 0.234375,-4.08203 0.222657,-3.1875 0.242188,-6.375 0.05859,-9.56641 -0.05469,-0.95703 -0.132813,-1.92187 -0.191406,-2.8789 -0.132813,-2.19532 -0.21875,-4.45313 -0.5625,-6.65625 -0.08203,-0.48828 -0.08984,-0.9961 -0.140625,-1.46094 -0.175782,-1.61719 -0.308594,-3.25 -0.554688,-4.85937 -0.210937,-1.41016 -0.542968,-2.80469 -0.855468,-4.19532 -0.167969,-0.78125 -0.382813,-1.55859 -0.621094,-2.3125 -1.101563,-3.46875 -2.5625,-6.77343 -4.390625,-9.92187 -0.378907,-0.65235 -0.804688,-1.28125 -1.210938,-1.92578 l -0.183593,0.13281 c 1.042968,2.15625 1.910156,4.37891 2.609374,6.67187 0.738282,1.96485 1.304688,3.97657 1.703126,6.03907 0.855468,5.58593 1.886718,11.15234 2.269531,16.82031 0.136719,2.12109 0.355469,4.23437 0.539062,6.35547 0.207031,2.38281 0.402344,4.76562 0.609375,7.15234 0.171875,1.85156 0.214844,3.71094 0.121094,5.57031 z m 2.195313,1.39062 c -0.347656,0.26172 -0.550782,0.61328 -0.597656,1.04688 z m 0.621094,-1.09765 c -0.335938,0.28515 -0.535157,0.64062 -0.605469,1.07422 0.335937,-0.27735 0.523437,-0.63672 0.5625,-1.07422 z m 13.28125,-16.59375 c 1.945312,-1.39844 3.78125,-2.92578 5.515624,-4.58203 1.914063,-1.75 3.886719,-3.42579 5.847657,-5.1211 1.289062,-1.10547 2.597656,-2.19531 3.914062,-3.24609 1.316407,-1.05469 2.699219,-2.15625 4.058594,-3.22656 1.359375,-1.06641 2.535156,-1.92969 3.800781,-2.92578 1.976563,-1.51954 3.9375,-3.0625 5.910156,-4.57813 1.214844,-0.92969 2.433594,-1.85156 3.65625,-2.76172 2.925782,-2.39844 5.851563,-4.78515 8.886719,-7.07422 -1.667969,1.02735 -3.328125,2.07032 -5.023437,3.05078 -2.871094,1.67188 -5.621094,3.51563 -8.257813,5.52735 -1.464843,1.16406 -2.851562,2.32812 -4.269531,3.5039 l -1.03125,0.83985 c -0.953125,0.8125 -1.910156,1.60937 -2.875,2.40625 -4.582031,3.82812 -9.121094,7.71093 -13.617188,11.64453 -0.0625,0.0703 -0.132812,0.13281 -0.210937,0.1875 l -0.734375,0.66015 -0.05078,0.043 -2.257813,1.9961 c -0.01563,0.008 -0.03125,0.008 -0.04297,0 -1.308594,1.19922 -2.613282,2.39843 -3.90625,3.61328 -0.320313,0.34375 -0.617188,0.70703 -0.890626,1.08984 z m 3.65625,-4.4375 c 0.339843,-0.33985 0.714843,-0.62891 1.125,-0.87891 l 0.351562,-0.32031 c 0.101562,-0.14063 0.230469,-0.25781 0.382812,-0.34375 1.109376,-1.01563 2.191407,-2.03125 3.339844,-3.03516 5.535156,-4.98047 11.195313,-9.86328 17.015625,-14.52343 l 0.734375,-0.62891 c 0.07813,-0.0898 0.148438,-0.1875 0.203125,-0.29297 -0.167969,0.082 -0.332031,0.17188 -0.488281,0.26953 -1.574219,1.11328 -3.210938,2.15235 -4.703125,3.35938 -3.117187,2.52734 -6.171875,5.11718 -9.238281,7.73437 -3.246094,2.75 -6.328125,5.67578 -9.242188,8.77734 -0.210937,0.22657 -0.402344,0.46875 -0.597656,0.73047 0.363281,-0.32031 0.722656,-0.58984 1.125,-0.86328 z m 21.808593,-10.69922 c -0.183593,0.10937 -0.375,0.21094 -0.542969,0.33594 l -6.464843,4.97265 c -0.21875,0.16797 -0.421875,0.34375 -0.636719,0.51953 0.242188,-0.11718 0.5,-0.21875 0.734375,-0.35937 2.363281,-1.45703 4.554687,-3.14063 6.578125,-5.04297 0.125,-0.13281 0.234375,-0.27344 0.332031,-0.42578 z m 5.160157,-4.78125 -0.386719,0.32031 c -0.3125,0.25 -0.636719,0.47656 -0.929688,0.73047 -0.875,0.82031 -1.742187,1.64844 -2.59375,2.48047 -0.21875,0.21094 -0.417969,0.44531 -0.628906,0.67187 0.203125,-0.10546 0.394531,-0.23046 0.578125,-0.37109 1.042969,-0.97656 2.078125,-1.93359 3.105469,-2.875 0.183593,-0.1875 0.347656,-0.38672 0.5,-0.60156 z m 5.253906,-5.99609 c -0.285156,0.13281 -0.550782,0.29296 -0.804688,0.47265 -1.617187,1.33203 -3.242187,2.65625 -4.835937,4.01563 -2.859375,2.54297 -5.859375,4.91015 -9,7.09375 -1.550781,1.03125 -3.085938,2.08984 -4.617188,3.15234 -1.835937,1.26562 -3.65625,2.55078 -5.484375,3.81641 -2.542968,1.76171 -5.117187,3.51171 -7.625,5.28125 -0.746094,0.44531 -1.390625,1.0039 -1.933594,1.67968 0.226563,-0.12109 0.460938,-0.23828 0.6875,-0.37109 0.914063,-0.53516 1.808594,-1.125 2.757813,-1.60156 3.828125,-1.8711 7.515625,-3.98828 11.058594,-6.35547 3.871093,-2.55078 7.527343,-5.38281 10.96875,-8.48828 1.59375,-1.50781 3.21875,-2.98438 4.804687,-4.50781 1.199219,-1.14844 2.355469,-2.33985 3.523438,-3.52344 0.179687,-0.21094 0.347656,-0.4336 0.5,-0.66406 z m 8.042968,-8.5586 c -2.785156,2.04688 -5.59375,4.07422 -8.367187,6.13672 -0.08984,0.13672 -0.199219,0.25781 -0.320313,0.36719 -1.082031,0.875 -2.195312,1.76953 -3.285156,2.60937 -2.792968,2.08985 -5.601562,4.16016 -8.308594,6.36719 -3.398437,2.77344 -7.027343,5.26562 -10.234374,8.25781 -0.148438,0.14063 -0.316407,0.25 -0.46875,0.375 -2.105469,1.78125 -4.214844,3.5586 -6.3125,5.35156 -0.199219,0.19922 -0.382813,0.41407 -0.546876,0.64454 0.167969,-0.082 0.332032,-0.17188 0.488282,-0.27344 L 60.355469,130.5 c 1.066406,-0.73047 2.097656,-1.52734 3.195312,-2.19141 3.808594,-2.51171 7.390625,-5.3125 10.742188,-8.40234 1.566406,-1.39062 3.160156,-2.75 4.835937,-4.00781 2.867188,-2.21875 5.53125,-4.65625 7.992188,-7.3125 0.210937,-0.25391 0.402344,-0.51563 0.585937,-0.79297 l 0.08594,-0.11328 z m -38.589843,25.54688 c 0.367187,-0.30469 0.71875,-0.625 1.050781,-0.96875 4.367188,-4.53907 9.066406,-8.69922 14.101562,-12.48047 3.078126,-2.37891 6.359376,-4.47656 9.558594,-6.70703 0.195313,-0.14063 0.386719,-0.3086 0.574219,-0.46094 -0.230469,0.0859 -0.464844,0.16797 -0.691406,0.26953 -3.34375,1.56641 -6.53125,3.40234 -9.558594,5.51563 -5.648437,3.99218 -10.566406,8.74218 -14.75,14.2539 -0.125,0.17969 -0.226563,0.375 -0.316406,0.57813 z M 42,142.55469 c 0.269531,-0.25 0.5625,-0.47657 0.804688,-0.73438 3.039062,-3.53906 6.277343,-6.88281 9.71875,-10.03125 2.492187,-2.2539 5.03125,-4.45312 7.589843,-6.63281 1.851563,-1.57812 3.65625,-3.17969 5.648438,-4.60937 5.4375,-4.07032 11.105469,-7.78516 17.007812,-11.15235 0.289063,-0.14844 0.585938,-0.28125 0.890625,-0.39453 0.238282,-0.30859 0.546875,-0.49609 0.929688,-0.5625 0.9375,-0.3125 1.78125,-0.78516 2.539062,-1.41797 -0.234375,0.082 -0.476562,0.15235 -0.730468,0.25 -1.648438,0.73047 -3.277344,1.46094 -4.945313,2.125 -3.171875,1.29688 -6.164063,2.91797 -8.980469,4.8711 -4.707031,3.15234 -9.21875,6.5625 -13.527344,10.23828 -3.121093,2.64062 -6.09375,5.43359 -8.921874,8.38281 -0.660157,0.73047 -1.316407,1.41015 -1.996094,2.08984 -2.21875,2.36328 -4.234375,4.89063 -6.050782,7.57813 z m 0,0"
             fill-opacity="1"
             fill-rule="nonzero"
             id="path213" /></g><path
           fill="#00674f"
           d="m 83.332031,48.859375 c -2.484375,3.003906 -4.816406,6.121094 -6.988281,9.355469 l -0.06641,0.101562 c -1.878906,2.792969 -3.636719,5.667969 -5.273438,8.621094 -0.04297,0.07813 -0.02734,0.140625 0.05078,0.183594 0.07812,0.04297 0.140624,0.02734 0.183593,-0.05078 0.429688,-0.734374 0.863281,-1.464843 1.308594,-2.152343 0.25,-0.238281 0.425781,-0.523438 0.535156,-0.855469 l 0.386719,-0.621094 c 0.226562,-0.238281 0.398438,-0.511718 0.519531,-0.820312 2.980469,-4.648438 6.222657,-9.117188 9.71875,-13.394532 0.203125,-0.257812 -0.15625,-0.628906 -0.375,-0.367187 z m 0,0"
           fill-opacity="1"
           fill-rule="nonzero"
           id="path214" /><path
           fill="#00674f"
           d="M 75.699219,59.5 75.875,59.25 Z m 0,0"
           fill-opacity="1"
           fill-rule="nonzero"
           id="path215" /><path
           fill="#00674f"
           d="m 76.992188,57.472656 0.175781,-0.246094 z m 0,0"
           fill-opacity="1"
           fill-rule="nonzero"
           id="path216" /><path
           fill="#00674f"
           d="m 77.152344,57.226562 0.183594,-0.25 z m 0,0"
           fill-opacity="1"
           fill-rule="nonzero"
           id="path217" /><path
           fill="#00674f"
           d="m 77.320312,57.015625 0.175782,-0.25 z m 0,0"
           fill-opacity="1"
           fill-rule="nonzero"
           id="path218" /><path
           fill="#00674f"
           d="m 77.484375,56.785156 0.179687,-0.246094 z m 0,0"
           fill-opacity="1"
           fill-rule="nonzero"
           id="path219" /><path
           fill="#00674f"
           d="m 77.652344,56.554688 0.160156,-0.25 c -0.03906,0.08594 -0.101562,0.191406 -0.160156,0.25 z m 0,0"
           fill-opacity="1"
           fill-rule="nonzero"
           id="path220" /><path
           fill="#00674f"
           d="m 77.8125,56.328125 0.175781,-0.25 z m 0,0"
           fill-opacity="1"
           fill-rule="nonzero"
           id="path221" /><path
           fill="#00674f"
           d="m 77.980469,56.101562 0.183593,-0.25 z m 0,0"
           fill-opacity="1"
           fill-rule="nonzero"
           id="path222" /><path
           fill="#00674f"
           d="m 78.148438,55.871094 0.183593,-0.253906 z m 0,0"
           fill-opacity="1"
           fill-rule="nonzero"
           id="path223" /><path
           fill="#00674f"
           d="m 78.316406,55.640625 0.175782,-0.25 z m 0,0"
           fill-opacity="1"
           fill-rule="nonzero"
           id="path224" /><path
           fill="#00674f"
           d="m 78.476562,55.414062 0.183594,-0.25 z m 0,0"
           fill-opacity="1"
           fill-rule="nonzero"
           id="path225" /><path
           fill="#00674f"
           d="m 78.644531,55.183594 0.183594,-0.253906 z m 0,0"
           fill-opacity="1"
           fill-rule="nonzero"
           id="path226" /><path
           fill="#00674f"
           d="m 78.8125,54.953125 0.175781,-0.25 z m 0,0"
           fill-opacity="1"
           fill-rule="nonzero"
           id="path227" /><path
           fill="#00674f"
           d="m 78.972656,54.726562 0.183594,-0.25 z m 0,0"
           fill-opacity="1"
           fill-rule="nonzero"
           id="path228" /><path
           fill="#00674f"
           d="m 79.144531,54.5 0.171875,-0.257812 z m 0,0"
           fill-opacity="1"
           fill-rule="nonzero"
           id="path229" /><path
           fill="#00674f"
           d="m 79.273438,54.300781 0.183593,-0.25 z m 0,0"
           fill-opacity="1"
           fill-rule="nonzero"
           id="path230" /><path
           fill="#00674f"
           d="m 79.472656,54.039062 0.183594,-0.25 z m 0,0"
           fill-opacity="1"
           fill-rule="nonzero"
           id="path231" /><path
           fill="#00674f"
           d="m 79.640625,53.8125 0.175781,-0.242188 z m 0,0"
           fill-opacity="1"
           fill-rule="nonzero"
           id="path232" /><path
           fill="#00674f"
           d="m 79.800781,53.570312 0.203125,-0.242187 z m 0,0"
           fill-opacity="1"
           fill-rule="nonzero"
           id="path233" /><path
           fill="#00674f"
           d="m 79.96875,53.351562 c 0.05859,-0.08203 0.117188,-0.167968 0.183594,-0.25 -0.06641,0.08203 -0.148438,0.167969 -0.183594,0.25 z m 0,0"
           fill-opacity="1"
           fill-rule="nonzero"
           id="path234" /></g></g></g></svg>
